<svg xmlns="http://www.w3.org/2000/svg" enable-background="new 0 0 2000 2000" viewBox="0 0 2000 2000" id="online-learning-support"><g><g><path d="M1167.9,1013.3c-7.9-7.9-10.6-18.9-13.6-29.1c-3.3-12-6.9-24-9.8-36.1c-4.6,1.4-9.5,1.7-14.4,1.2
			c-3,7.7-4.4,13.3-4.4,21.2c-0.1,17.9,3.4,35,14.4,50.7c4.3,6.5,12.5,11.5,21.9,15.2c14.6,5.5,33.3,4.8,49.2,1.1
			c15.9-3.2,28.4-9.4,39.5-19.1c23.8-20.6,66.3-75.8,53.2-102.5c-4-6.7-14-9.9-22.8-9.6c-4.7,0.2-9.2,1.5-13.4,3.4
			c1.9,2.5,0.1,5.1-2.1,8.7c-13.2,24.8-18.7,58.2-39.3,81.6C1213,1017,1186.9,1031.3,1167.9,1013.3z"></path><path fill="#ffc947" d="M1215.8 1085.9c1.7-12.3 4.6-24.7 4.5-37.2-.8.5-1.6 1-2.4 1.4-7.4 4.2-15.5 6.5-23.6 8.3-12.6 3-25.9 3.3-38.4-.5-8.5-3-16.9-7.8-23.1-14.9-1.6-2.2-3.1-4.5-4.5-6.9-.1.3-.3.6-.5.9-3.6 6.6-5.3 11-7.7 17.7-7.6 22-10.9 42.4-11.9 65.6-1.3 17.8-3.1 35.5-3.9 53.3-1.3 19.9-.9 39.9-2.6 59.8-2.9 24.7-7.9 49.6-17.3 72.4 19.2-2.3 37.4-7.8 57.1-12.5 14.4-3.7 29-8.7 42.9-15 0-.1-.1-.1-.1-.2-.7-1.4-.4-3.2-.7-4.8-3.8-42.3 8.6-83.2 19.2-123.3C1208.8 1128.2 1212.4 1107.3 1215.8 1085.9zM1201.9 868.8c-7.6 15.6-15.6 31.2-26 45.3-7.3 10.1-15.8 19.8-26.8 26.2-.6.3-1.1.6-1.7.8.1.7.2 1.5.5 2.1 2.9 12.5 6.6 24.8 10 37.2 2.6 9.4 5.7 19 11.2 25.5 16.8 18.4 40.9 4.7 53.4-11.2 17.2-20.4 23.4-44.3 32.9-69 2.4-6.3 6.9-15.7 9.5-19.6-1.9-2.6-10.4-5.5-15.2-8.9-13.7-8.3-23.9-21-30.8-34.8-2.7-5.6-5.2-11.4-7.3-17.3C1209.7 852.3 1206.6 860 1201.9 868.8z"></path><path d="M1466.1 1144.7c3.8 4.9 7.4 10 10.6 15.3 3.5 5.4 6.3 11 8.9 16.9.4-6.7.8-13.4.9-20.1.3-15.7.9-30.1-1.8-44.4-2.3-11.9-8-24.9-14.5-33.8-.1 20.9-2.6 42-7.2 62.5C1464.3 1142.1 1465.1 1143.8 1466.1 1144.7zM771.8 1345c.9 2.2 1.7 4.4 2.5 6.5 2.3 7.7 10.3 24.8 12.1 38.6 2.5-.8 6.1-.1 8.7-.5 8.8-.3 17.6-.8 26.4-1.3 27.8-1.7 55.3-5.1 82.9-9-4.3-1.1-8.6-2.1-12.9-2.9-14.2-2.9-28.6-4.5-42.7-7.7C822.8 1361.9 797.6 1352.4 771.8 1345zM1069.8 814.7c7.8-2.5 16.5-6.6 22.3-11.2 5.5-4.8 7.8-8.9 9.9-15.8.5-1.8 3.3-2.5 4.2-.8.5.9 0 1.9-.2 2.8-.1.3-.2.5-.3.8 5.3.9 8.6 1.9 13.3 1.7 22.6-.7 38.6-13.3 49.7-32.5 2.2-4 3-5.2 4.3-9.4.7-1.7.4-3 1.1-3.9 0-.1-.1-.1-.1-.2-.3-.5-.3-1.1-.1-1.7.4-1.2 1.7-2 2.9-1.7 1.9.7 2.6 3 3.9 4.3 6.6 8.4 12.1 17.5 17.3 26.7 9.6 16.8 14.6 29.7 14.7 43.1.4-.2.8-.3 1.3-.3.4 0 1.8.7 2.4.9.2.1.4.1.5.2.6.2 4 .9 2.6.6 6.9.8 14.6-6.6 16.9-11.3 3.5-7.4 3.3-19.3 2.6-26-2.8-26.4-17.1-48.7-39.2-64.6-14.3-10.5-37.2-18.1-55.8-12.4 1.5 1.7 3 3.4 4.3 5.2.8 1.4 2.4 2.5 2.5 4.2-.1 1.1-1 2.2-2.1 2.3-2 .5-2.6-1.9-3.7-3-1.5-2.2-3.6-4.7-6-7.2-.8-.2-1.5-.8-1.6-1.6-.5-.5-1-1-1.6-1.5-7.4-7.4-17.5-11.4-27.9-13.7-9.6-1.8-19.5-.5-29.2 2.5-28 8.7-51.7 34.1-58.5 62.9C1012.3 786.8 1030.6 827.9 1069.8 814.7z"></path><path fill="#185adb" d="M975.8,1261c9.1-1.4,18.3-2.4,27.4-0.5c4.8,0.8,9.5,2.2,13.9,4.1c0-0.1,0-0.2,0-0.3c0-1.4,1.2-2.1,2.1-2.8
			c5.5-4.3,10.8-8.7,13.6-13.4c12.5-19.3,16.6-39.7,18.2-62.9c0.3-1.4,0.1-3.4,0.3-5c-0.5-0.5-0.9-0.9-1.4-1.4
			c-4.9-4.7-10.1-8-16.2-12.8c-2-1.2-0.6-4.7,1.5-4.4c7.7,5,15.5,10.9,21.9,17.8c0.2,0.3,0.5,0.6,0.8,0.8
			c0.2-20.6,0.6-41.2,0.3-61.8c-1.1-30.4-4.1-60.7-2-91.2c1.1-12.8,4.2-25.3,8.5-37.3c-18.6,18.6-36.5,39.6-50.3,59.6
			c-17.3,25.2-31.6,52.5-45.2,80.2c-13.4,27.4-25,52.5-33.9,81.6c-3.8,12.3-7,22.7-7.7,34.8c-0.3,10.8,0.6,21.8,4.2,31.2
			C945.4,1269,960.3,1263.2,975.8,1261z"></path><path d="M770.5,1346.8c1.1-0.6,2.4-0.1,3.5,0.2c14.4,3.6,28.6,7.4,42.9,11.1c12.5,3.3,25,7,37.9,9.1c17.8,2.9,35.9,4.5,53.5,8.4
			c1.9,0.5,4.1,0.7,5.8,1.6c0.2,0.2,0.4,0.4,0.5,0.7c14.9-1.8,29.8-3.6,44.8-5.4c-1.3-2.1-1.9-4.5-1.9-7.1
			c-4.7,2.9-10.5,2.3-15.7-2.5c-2.2-2.5-3.5-5.4-4.1-8.5c-0.5,0.3-1.1,0.7-1.7,0.9c-4.3,1.8-7.9,0.1-10.2-2.7
			c-11.7-1.7-23.2-4.1-34.7-6.5c-23-5-46.5-8.5-69.9-12c-11.2-1.7-24.9-4.3-34.3-4.5c-9.1,0-15.3,1.2-23.6,2.8c-0.1,0-0.3,0-0.4,0
			c2.5,4.8,5,9.6,7.4,14.5C770.2,1346.9,770.3,1346.8,770.5,1346.8z"></path><path fill="#185adb" d="M1050.1 1183.6c-.6 0-1.2-.2-1.6-.6-.2-.2-.4-.4-.6-.6-1.7 22.4-6.3 44.9-18.8 63.9-4.6 8.1-13.7 14.6-19.2 18.7-.1.1-.3.2-.4.3 13 5.9 24.5 15.1 35.1 24.4 5.8 5.3 10.5 11.6 15 18 .1-.3.3-.5.4-.7-.5-8.3-1.1-15.5-2.4-24.7-2.9-16.7-6.3-33.5-6.4-50.5-.6-16.1-.6-32.3-.5-48.4C1050.5 1183.5 1050.3 1183.6 1050.1 1183.6zM1060.2 1073c.9 16.8 2.3 33.6 2.4 50.4.1 33.5-1 67-.2 100.5.3 10.7.4 19.9 1.6 29.4 1.3 10.8 3.7 21.4 5 32.2.7 6.3 1.3 12.6 1.6 19 0 .6.1 1.2.1 1.9 2.1.1 7.7.5 10.8.1.9-.1 1.8-.2 2.6-.3 2.2-5.5 5-12.5 7.2-19.6 5-16.9 8.5-34.8 10.7-50.7 2-16.4 1.8-32.9 2.4-49.4.8-21.9 2.4-43.7 4.3-65.5 1.1-12.8 1.5-25.8 3.4-38.5 2.3-14.4 6-28.6 10.8-42.2 1.8-4.9 3.8-9.8 6.1-14.4.9-1.6 2.2-5.1 4.1-5.3-7.7-14.9-10.8-32.4-10.9-49.4-.2-8.3.8-16.8 3.6-24.6-.2.1-.5.2-.7.2-3.1.4-5.5 1.1-9.3 2.3-14.5 6.2-27.2 18.9-40.3 30.5-1.3 1.2-2.6 2.4-3.8 3.6-2.1 6.8-5.2 13.4-6.8 20.5C1058.7 1025.5 1059.7 1049.2 1060.2 1073z"></path><path fill="#ffc947" d="M1142.7,938.5c0.6-0.9,1.7-1.4,2.8-1.1c1.8-0.8,3.5-1.8,5.1-3c15.6-11.2,28-30.3,38.1-49.1
			c6.7-13.4,12.9-24,17.6-37.7c7.6-21.3-2.9-42.5-15.4-62.8c-3.5-5.7-7-11.4-11.1-16.7c-0.5-0.7-1-1.3-1.5-2c-1,3-2.8,6.3-3.3,7.6
			c-6.2,11-14.4,21.6-25.6,28.5c-12.7,7.6-29,11-43.6,6.9c-0.3-0.1-0.6-0.2-0.8-0.4c-0.4,0.8-0.7,1.6-1.1,2.4
			c-2.8,5-7,9.3-11.9,12.5c-12.2,7.1-26.4,13-41,11.7c0.1,0.3,0.1,0.7,0.2,1c2.4,9.2,5,16.3,8.6,24.2c7.3,15.6,16.1,30.5,25.6,45
			c6.5,9.2,10.7,17.2,18.8,24.3C1114.6,937.6,1130.1,942.6,1142.7,938.5z"></path><path fill="#185adb" d="M1287.3,989.3c-11.9,16.5-25.1,33.3-42.4,44.4c0.1,0.3,0.2,0.6,0.1,0.9c0.4,5.3-0.3,10.6-1,15.8
			c-5,31.6-10.1,63.2-19.1,93.9c-12,41.9-25.1,81.6-21.3,125.4c0,0.6,0.1,0.5,0.2,2.3c0,0.9,0.3,1.9,0.2,2.8
			c12.5-5.5,24.5-11.8,35.7-19.2c-0.3-0.4-0.6-0.8-0.6-1.5c-0.5-14.2-1-28.5,0.2-42.7c2.2-20.7,7.2-41,11-61.5
			c7.8-39.1,21.5-77.6,44-110.7c17.8-25.3,40.3-46.6,61.4-69.1c9.9-10.3,18.8-19.2,25.9-30.1c1.6-2.4,3.1-4.9,4.3-7.4
			c0,0,0-0.1,0-0.1c-10.3-6.3-21.5-11.5-33.4-15.9c-10.5-4.2-25.2-7.8-38.1-10.3c0.2,0.4,0.4,0.8,0.6,1.2
			C1323.8,933.2,1301.4,968.6,1287.3,989.3z"></path><path d="M517 679.5c-5.3-4.4-14.7-8.9-22.6-12.5-10.2-4.6-22-8.4-31.9-8.9-13.5-.9-27.8 1.7-38.3 5.9 4.5 7.8 9.7 15.2 15.9 21.9.4.5.9 1 1.3 1.5 1.1-.2 2.4-.1 3.5-.3 5.4-.4 10.9-.6 16.3-.2 23.6 1.5 46.1 13.3 60.2 32 6.1 7.9 10.6 16.2 12.7 24.7.1-.1.3-.3.4-.5 0-.1.1-.2.2-.2 4.9-6.4 4.8-15.8 4.4-23.1C536.7 703.3 529.9 690.3 517 679.5zM534.6 743.3C534.6 743.2 534.6 743.2 534.6 743.3 534.6 743.2 534.6 743.2 534.6 743.3 534.6 743.2 534.6 743.2 534.6 743.3zM534.7 743.1c.4-.4.2-.3.1-.1C534.7 743 534.7 743.1 534.7 743.1 534.7 743.1 534.7 743.1 534.7 743.1z"></path><path d="M500.4,705.3c-16.9-11.4-35.2-15.3-55.1-13.7c11.6,11.6,25.2,18.8,38.5,29.7c6.4,5,12.8,10.2,17.3,17
			c11.3,14.7,10.4,32.3-5.1,43.6c-7.6,5.9-16.4,10.5-26.1,11.6c-1.1,0.1-2.3,0.2-3.4,0.2c0.1,0,0.2,0,0.2,0
			c15,3.3,30.3,0.9,43.1-6.4c11-6.3,17-14.5,20.2-27.1C534.8,741,516.8,716.8,500.4,705.3z"></path><path fill="#185adb" d="M467.5,788.2c6.6-1.3,14.4-6.5,18.3-9.5c11.7-9.1,14.1-21.2,6.6-34.2c-7.8-14.1-23.1-23.7-35.6-33.6
			c-7.7-5.7-15.5-11.4-21.8-18.7c-10-11.5-19.1-24.2-24.9-38.6c-15.5-39-22-83.3-10.4-124.3c1.1-4.5,2.6-9.3,4.5-14
			c-0.1-0.2-0.3-0.3-0.4-0.5c0.3-0.2,0.6-0.4,0.9-0.6c4.1-9.8,9.8-19.4,17.2-26.1c-19.3,1.6-36,9.2-49.4,23.8
			c-9.3,11.5-17,29.1-18.5,44.4c-3.6,35.7,5.8,69.7,21.4,101.3c7,15.4,12,31.7,14.6,48.6c3.2,21.2,7.7,42.7,20.1,57.7
			C424.1,780.9,448.1,792.5,467.5,788.2z"></path><path d="M472.1 488.4c1-.1 1.9-.1 2.9-.2-5-3.5-11.3-7.2-16.3-8.4-12.2-3-22.8.8-31.6 8.2-4.8 4.3-8.8 9.3-12.1 14.9C432.2 494.3 451.6 490.1 472.1 488.4zM1746.7 1124.8c-25.3-1-50.2-5.9-75.3-9.3-44.8-5.7-93.8-1.8-137.7 9.3-5.7 1.6-11.3 3.2-16.8 5.2.6 0 1.2-.1 1.8-.2 12.1-.8 24.2-.1 36.2 1.4 13 1.7 26 3.7 38.6 7.3 19 5.1 37.5 11.9 56.9 15.7 45 9.7 68.6.5 111.3-15.3 15.4-5.4 31-10.1 46.9-13.5 12.2-2.7 24.5-3.8 35.3-6.6-1.6-.6-3.2-1.4-4.7-2.2-.3.5-.7.9-1.2 1.1-7.8 1.3-15.7 1.9-23.6 2.9C1791.9 1123.3 1769.3 1125.9 1746.7 1124.8zM1551.3 1223.5c6.6 5.8 13.1 10 21.8 14.4 34 16.7 75.6 22.5 111.9 14.2 11.2-2.8 21.5-5.6 30.4-11.1-9.1.5-18.3 0-27.4-.3-20.1-1.1-39.9-5.5-58.3-13.7-34.5-14.7-68.4-37.1-104-38.3-8.3-.5-16.6-.3-24.8.5-.9.1-1.7.2-2.6.3 7 1.5 13.6 4.4 19.9 7.7C1530.9 1203.8 1540.7 1214.2 1551.3 1223.5zM1762.8 998.4c-34.8 14-71.8 20.4-108.4 27.4-29.5 6.4-59.1 13.4-86.9 25.3-8.4 3.6-15.3 6.2-22.6 10 10.7-2.4 21.8-3.6 32.8-4.1 38.2-1.9 76.7-.7 114.7-6.3 44.9-6.7 91.9-19.6 130.6-46 23.1-14.6 41.1-34 56.5-56.7 3.4-5 6.7-10.2 9.4-15.6-6.1 4.2-12.4 8.2-18.7 12.1C1835.8 965.1 1799.9 983.3 1762.8 998.4zM1562.2 994.7c1.1-9.3 1.8-18.7 2.1-28.1.3-27.7-2.6-53.9-11.3-81-4.3-13.2-14.2-29.5-17.9-45.1-1.7-5.9-3-11.8-3.9-17.9-.5-2.9-.8-6.3-1.5-8.9-1.4 6.6-3.2 13.2-4.4 20-5.6 28.9-9.5 62.3-10.6 93.7-1.5 26.2 2.2 49.4 4.3 75.7 2 26.8 1.6 53.7-1.5 80.3-.2 3.2-.2 7.2-.1 10.5 9.7-26.7 19.8-53.4 33-78.6C1554.1 1008.3 1558.1 1001.4 1562.2 994.7zM1567.5 1025.3c20.6-18.7 45.6-36.9 60.5-58.1 13.6-17.8 23.1-35.9 30.7-55.7 5.9-14.3 10.7-29 13.8-44.1 7.3-34.7 6.1-72.9-.3-108.8-1.1-5.9-1.9-11.9-2.2-17.8-3.5 24.2-8.2 48.2-14.6 71.8-9.9 39.4-25.5 77.2-44.6 112.9-13.6 24.1-29.6 46.7-44 70.3-.1.5-.1 1-.2 1.5 0 1.2-1 2.2-2.2 2.4-3.4 5.7-6.8 11.5-9.9 17.4-7.7 14.6-14.2 29.5-20.3 44.9.5-.3.9-.6 1.4-.9C1541.8 1046.3 1556.1 1036.1 1567.5 1025.3z"></path><path fill="#185adb" d="M882.7,976.7c5.3,3.2,10,7.2,13.9,11.9c10,12.3,13,30,7.8,44.9c-5,12.2-11.5,24.2-21.3,33.4
			c-10.5,9.7-25.2,15.8-39.8,12.7c-0.1,0-0.1,0-0.2-0.1c-0.3,0.2-0.6,0.4-0.9,0.6c-3.3,2.3-7.1,4.1-11,5c0,1.4-0.2,2.9-0.2,4.3
			c-0.4,9.1-1.2,18.1-2.3,27.2c-4,38.1-18.1,68.7-47.3,94.9c-16.9,15.4-38.3,25-59.8,32.7c4,9.6,7.9,19.3,12,28.9
			c2.3,5.5,4.8,11,7.2,16.5c0.1-0.2,0.2-0.3,0.4-0.4c1-1,2.6-0.7,4-1c8.2-0.9,15.4-2.9,24.4-5.1c29.6-8.2,55.6-20.1,80.7-38.1
			c19.3-14.5,37.9-35.9,52.1-57.4c12.5-18.7,23.7-37.4,31.2-57c4.8-12.6,8.9-25.3,10.1-37.3c1-20.5-2.3-39.9-7.4-60.7
			c-9-32.6-25.3-64.6-55.5-82c2.9,4.8,4.7,10.3,4.9,15.9C885.7,969.7,884.5,973.4,882.7,976.7z"></path><path d="M1466.9 1228.5c-.3-1.8-.6-3.6-1-5.4-2.7-13.7-5.2-25.1-12.3-36.6-.7-1.5-1.9-2.8-2.7-4.2-.9 2.2-1.7 4.5-2.6 6.7-.1 2.7-.3 5.4-.5 8.1C1455.5 1206.5 1461.5 1217.4 1466.9 1228.5zM729.2 1278.5c-14.8-35-28.5-70.5-43.6-105.5-3.2-7.7-6.3-15.5-9.9-23.1-2-3.9-3-6.9-5.7-9.2-6.5-5.2-16.8-8.2-27-9.6-12.8-2-23.2-2.7-35.6-3.1-43.6-.2-93.4-6.4-131.4-8.4-8.8 1.4-.5 13.4 4 25.1 8.4 19.6 17.1 42.6 23.9 61.9.8 0 1.6.4 1.9 1.5 3.1 10.2 6.5 20.3 10.1 30.4 11.3 33.2 26.5 70 43.4 99.9 2.9 3.8 7.1 5.1 12.4 7.4 7.7 3.1 18.2 6 27.9 8.4 22.3 5.2 44.4 11.4 66.5 17.3 33 8.8 69.4 21.5 101.4 25.1 10.5-.7.4-28.3-4.6-41.1C753.1 1329.3 740.1 1304.3 729.2 1278.5zM687.4 928.8c8.6-3.2 16.7-9.6 24.4-17.2 7.6-7.7 13-13.4 17.9-22.7-4.1-19.4-4.5-40.1-2.2-56.2-1.2 1-2.4 1.9-3.6 2.8-3.7 2.6-8 4.5-12.4 5.6-2 .2-4.6 1.7-6.4.4-.9-.9-.7-2.4.2-3.2.6-.7 1.5-.7 2.3-.9.2 0 .5-.1.7-.1-1.2.2 3-.6 3.9-1 4.9-1.4 9.3-4.1 12.2-6.5 7.1-5.5 10.6-12.9 13.8-20.4 6.9-15.9 10.7-32.8 15.6-49.3-1.2-1.4.1-3.8 1.9-3.8.6 0 1.2.2 1.6.6 2.5 2 2.6 2.1 5.1 3.8 8.1 5.3 16.9 9.3 25.6 13.4 10.1 4.8 19.9 10.2 29.6 15.8 5.9 3.6 12.1 7.2 16.6 12.6 5.5 7.2 10.6 14.6 15.4 22.3.6.2 1.1.8 1.3 1.4 0 .2 0 .4.1.6 1.8 2.9 3.5 5.8 5.1 8.7 5 9.3 8.5 16.7 16.2 23.2 3.5 3 5.2 4.4 9.8 6.7 1.3.9 3.3 1 4.2 2.4.8 1.6-.7 3.7-2.4 3.5-8.9-3.1-16.4-9.7-22.2-16.9-3.4-5.1-6.4-10.4-9.4-15.8.9 9.6 1.2 19.3 0 28.8-1.8 13.2-4 26.6-9.8 38.7-4.1 8-9.2 15.4-15.2 22.2.1.2.1.4.2.6-1.4 5.8-2.4 8.9-3 14.3-.7 7.5-.1 14.4 1.3 21.5 0 .1.1.1.1.2.1.3.2.6.1.9.7 3.5 1.7 7 2.8 10.8.3 1.6 1.5 3.2 1.1 4.8-.4 1.4-2.1 2.3-3.4 1.6-.1-.1-.2-.2-.3-.2-3.6 3.6-6.5 6.8-9.1 10.7-11.2 16.9-22.2 38-18.1 56.1 2.6 10.6 13.6 16.7 25.4 19.3 7.5 1.9 11.7.3 18.8-4.2.9-.5 5.3-3.6 4.1-2.8 1.4-1.3 3.8-3.2 5-.6.4.8 0 1.9-.6 2.5-.1.1-.2.1-.3.2.8.1 1.7.3 2.4.3 4.4.5 12-1.4 16.1-3.5 15.3-7 24.8-22.6 31-37 6.9-14.4 3.4-32.9-4.4-44-3.4-4.5-8.6-9.3-11.8-11.4-1.8-1.2-3.7-2.4-5.6-3.4-2.2-.8-4-2.6-1.7-4.6 1.3-1 2.7-.3 4.1.5.7-1.4 1.3-2.5 1.8-4.9 1.7-6.8-2-16.7-8.1-23-.7-.9-1.8-1.6-2.4-2.6-2.8-1.4-5.7-2.7-8.6-4-2.3-1.3-5.6-1.6-7.5-3.5-1-2 1.3-4.2 3.3-3.3 6.4 2.4 12.7 5.2 18.7 8.3.9-2.3 2.2-4.5 3.3-6.8 3.9-8 6.2-13.2 9.7-21.2 16.8-39.7 15.5-86.3-.7-124.7-5.8-14.8-13.8-28.7-23.5-41.3-4.5-6.3-15.3-18.9-22.3-23.2-10.6-8.3-25.4-11.9-36.7-12.4-13-.8-24.7-.1-36.2 2.9-34.4 8.5-60 28.5-69.5 61.6.2-.2.4-.3.6-.5 3.1-2.1 5.7-5.3 9.1-6.7 1.9-.2 2.8 2.3 1.6 3.5-3.3 2.8-7.4 5.8-11.8 9.6-.4.3-.8.7-1.3 1.1-.1.6-.3 1.1-.4 1.7-.4 1.5-2.3 2.2-3.5 1.5-24 20.9-39.4 47.2-47.4 78.2-4.4 17.8-7.2 36.3-4.3 54C648.8 927.1 667 936.2 687.4 928.8z"></path><path fill="#185adb" d="M651.7,1053.8c-5.8,24.2-13.4,47.9-22.7,71.1c-0.2,0.4-0.4,0.9-0.6,1.4c8.8,0.7,17.7,1.7,26.4,3.3
			c8.1,1.7,16.6,4.3,22.9,9.6c4.3,4.6,6.3,10.5,9,16c12.2,27.2,23.8,54.5,35.5,81.9c1.7-0.8,3.8-1.1,5.5-1.9
			c9.2-3.3,15.4-6,24.4-10.2c26.2-12.8,45.2-32,58.7-56.6c7.2-13.3,11.5-31.4,13.4-46.9c1-7.8,1.7-15.6,2.2-23.4
			c0.1-2.2,0.2-4.4,0.3-6.5c0,0,0,0,0-0.1c-2,0.1-4.1-0.1-6.1-0.6c-20.6-4.1-33.1-15.3-29.2-35.9c1.9-10.7,6.7-20.6,12.3-30
			c4.9-7.8,10.3-15.6,17.6-21.6c-0.7-2.3-1.4-4.6-2-6.9c-3.5,4.3-6.9,8.7-10.3,13.2c-20.8,28.6-39.5,58.6-56.4,89.3
			c-6.5,12.3-13,24.6-19.2,36.9c-3.8,6.9-6.1,14.9-12.4,20.3c-9.6,6.9-12.2-11.7-14.9-17.2c-8.3-21.5-11.9-44.2-14.9-66.8
			c-2.5-19.6-5.2-39.2-9.2-58.7c-2.9-16.2-6.9-34-13-47.7c-0.4-0.6-0.3-1.3,0.1-1.9c-2.5-0.2-5-0.7-7.4-1.4c0.4,1,0.3,2.4,0.6,3.4
			c0.8,5.9,0.8,11.9,0.7,17.8C662,1007.4,657.8,1030.9,651.7,1053.8z"></path><path fill="#ffc947" d="M731.3,871c3.7,25.5,12.4,54.5,33.4,65.7c13.1,7,29.3,5.8,41.6-3c10.6-8,20.7-20.9,27.4-35.1
			c6.1-14.7,9.1-33,9.5-51.2c0-7.4-0.4-12.8-1-19.3c-0.2-2.5-0.5-4.9-0.8-7.4c-1.4-2.5-2.9-5-4.4-7.4c-5.4-7.9-8.8-15-15.2-20.8
			c-9.9-8-25-16.4-37.7-23.2c-9.7-4.9-19.7-9.5-28.5-16.3c-1.9,7.9-4.4,15.8-6.3,23.7c-2.6,9.8-5.7,19.4-9.7,28.7
			c-2,5.2-4.7,10.1-8.1,14.3c0.1,0.2,0.1,0.5,0.1,0.7c-0.7,5.4-1.3,10.8-1.7,16.2C729,849.3,729.8,859.6,731.3,871z"></path><path d="M1628,1311c-13.3-1.1-26.7-3.6-38.9-9.1c-30-14.2-54.8-37.6-85.5-50.3c-7-2.8-15.1-5.3-23.8-7.1
			c3.5,4.4,6.7,10.4,7.4,12.3c5.2,12.4,10.9,29.7,18.4,38.3c13.5,17.1,30.5,28.3,51.7,31.3c26.5,3.7,55.7-1.9,82.3-8.8
			c5.8-1.7,11.7-4,15.1-6.7c-1.1,0-2.2,0.1-3.2,0.2C1643.7,1311.8,1635.8,1311.7,1628,1311z"></path><path fill="#ffc947" d="M690.6,928.1c-5,2.3-10.4,3.5-15.6,3.6c6.3,14.7,9.1,31.2,12,47.1c8.7,43.4,9.4,88.3,20.1,131.3
			c3.3,11.9,10,34.9,11.7,33.4c4-2.4,8-13.8,11.5-21.4c6.4-14.4,12.9-28.7,19.6-43c15.8-32.7,33.3-64.6,52.4-95.3
			c3.7-5.7,7.4-11.3,11.3-16.9c0.8-0.9,2-3,3.3-4.7c-2-10.6-2.1-21.7,0.2-32.2c-1.3,1.4-2.7,2.7-4.1,4
			c-15.2,14.4-39.8,16.4-56.3,3.4c-13.3-9.9-21.7-27.8-26.5-47.6c-2.3,4-5,7.7-7.9,11.2C713.2,911.7,703.2,922.4,690.6,928.1z"></path><path d="M534.6,743.2c0.1-0.1,0.1-0.1,0.1-0.2C534.7,743,534.7,743.1,534.6,743.2C534.6,743.2,534.6,743.2,534.6,743.2z"></path></g><g><path d="M1323.1 1463.2c11.9-2.4 23.8-4.8 35.7-7.6 8.5-2.3 17.8-4 24.7-9.6 7.9-12.4-13.1-18.4-22-20.3-32-6.7-65-6.2-97.5-8.7-17.9-1.1-35.8-2.8-53.7-3.4-13.5-.6-35.2-1-44.8-2.6 3-1 6.2-1.6 9.3-2.3 2.9-.8 6.2-.6 8.6-2.5 1-1 1.4-2.6.4-3.7-3.2-2.6-7.8-2.8-11.7-4-4.2-.8-8.6-1.7-12.8-1.9-1.8.2-2.9 2.7-1.6 4 1.4 1 3.2.7 4.8 1.1 3.5.5 7 1.1 10.4 2 .6.1 1.2.3 1.8.4-4 .8-8 1.6-11.7 3-2.1.9-5 2.6-4.5 5.3.3 1.2 1.3 2 2.4 2.4 3.6 1.3 7.6 1.3 11.4 1.7 12.8.9 25.6 1.3 38.4 1.8 33 1.6 65.9 4.5 98.9 6.1 19.1 1.7 62.7 3 70.4 15.6 5.1 5.4-19.8 10.5-32.4 13.5-51.4 11.2-100.8 20.3-153.8 23.8-45.5 3.6-91.1 6.4-136.8 7.5-61.1 1.2-122.2.1-183.3 0-80.4.7-158.7-5-237.6-13.9-60.6-7.1-121.6-13.8-180.6-29.9-38.1-10.6-76.3-20.6-114.2-32.1-20.9-6.5-40.8-11.2-59.7-20.2-4-2.3-6.6-3.4-7.1-5.7 0 0 0 0 0-.1 5.1-3.2 11.8-3.4 19.4-4.6 12.1-1.5 24.2-2.8 36.3-4.1 26.5-2.9 52.9-5.8 79.4-9 18.4-2.6 37.1-4 54.8-9.7 3.8-1.2 9.8-4 8.7-8.9-1.4-4.8-7.1-6.3-11.3-8.1-8.5-3-17.3-5-26-7.1-19.4-4.4-38.7-8.8-58.1-13.1-64.8-14.4-129.2-30.5-192.2-51.5-17.7-6.1-81.1-28.3-75.2-33.9 4.8-2.6 17.5-3.7 27.7-3.9 14.1-.5 28.3-.8 42.5-1.1 47.7-1.1 95.3-.7 143-.8 20.7-.2 41.5-.3 62.2-.4 6.9-.1 13.8-.2 20.7-.5.6 0 1.3-.3 1.7-.8 1.6-1.2.6-4.1-1.5-3.9-64.7 1.5-129.5.4-194.2 1.1-24.8.3-49.6.9-74.4 1.7-12.3.2-43.5 1.7-29.7 15.6 7 5.3 15.5 8.2 23.4 11.9 93.9 38.4 193.5 59.5 292.1 81.8 17.2 3.7 45.9 10.3 44.5 14.9-11.6 6.5-27.6 7.3-42.1 9.8-24.8 3.3-49.8 6-74.7 8.8-24.2 3.1-48.6 4.5-72.6 9-7.9 1.7-14.7 8.1-3.2 14.9 20.3 10.7 43 15.7 64.8 22.6 27.3 8.4 55 15.7 82.5 23.3 31.9 9.1 63.9 17.6 96.6 23 86.4 14 173.7 22.9 261.1 27.8 41 2.2 82 1.6 123.1 1.8 88.7 1 177.4 1.4 265.9-5.7 28.4-2.1 56.8-4.3 85-8.1C1277.9 1472.4 1300.5 1467.7 1323.1 1463.2zM563.6 1490.1c-4.8-.9-9.7-1.8-14.5-2.7-20.3-4-40.5-8.1-60.6-13.1-17.4-4.1-34.5-9.5-52.3-11.5-7.6-.6-17.7-1.8-22.9 5.1-1.6 2.5-1 7.1-1.4 8-.3 1.1-1.9 3.6-3.1 4.8 0 0-.1 0-.1.1-.1 0-.2.1-.3.1-5 .8-18.7-3.1-27.2-5.6-35.2-10.2-67.4-21.7-101-37.2-11.3-5.1-22.6-10.3-33.9-15.5-2.4-1.3-5.2 2.7-2.5 4.2 25.7 11.9 51.3 23.9 77.8 34 21.9 8.4 44.3 15.2 66.8 21.7 4.7 1.3 9.5 2.4 14.3 3.1 2.7.3 5.6.8 8-.6 2.7-1.8 4.5-5 5.7-8 .4-.9.5-5 .5-5.5.4-1.4.1-.9.6-1.6.2-.3.6-.6.8-.8 6.6-4.1 26.1-.7 39.5 2.7 16.4 3.9 32.6 8.3 49.1 11.9 16.4 3.6 32.8 7 49.2 10.1 3.3.6 6.5 1.2 9.8 1.8 1.3.3 2.6-.6 3-1.8C569.6 1490.4 565.7 1490.6 563.6 1490.1zM537.1 741.5c.1-.1.1-.1.1-.2C537.2 741.4 537.1 741.4 537.1 741.5 537.1 741.5 537.1 741.5 537.1 741.5z"></path><path d="M180.1,951.7c12.7,11,29.2,17.6,45.9,19.2c8.4,0.4,16.3-1,23.4-3.7c-6.5,33.9-33.1,61.1-60.9,83.8
			c-16.6,14.2-30.2,32.5-36.9,53.5c-3.7,14.4-1.3,30.1,6.4,42.8c1.9,3.4,4.1,6.6,6.5,9.7c0.6,0.6,1,1.6,1.9,1.8
			c0.9,0.4,1.9,0,2.6-0.6c2.3-2.5-1.3-4.6-2.4-6.6c-0.5-0.3-3.8-5.8-5.1-8.2c-5.8-10.5-7.6-20-6.3-32.5c-0.2-3.6,4.5-15,5.9-17.6
			c9-19.4,23-33.2,40.1-47c24.6-21.1,48.3-48.5,53.6-81.3c14.3-7.2,25.4-20.2,32.5-35.6c7.9-16.9,12.6-34.9,15-53.3
			c8.3,4.2,17,7.2,26.3,8.7c21.1,3.1,41.3-8.7,49.1-28.5c1.6-4.4,2.7-9.2,3.3-14.2c12.6,4.1,25.9,5.4,39.2,3
			c21.9-5.2,42.3-20.6,40-45.2c-0.2-1.2,0-2.5-0.1-3.8c0.7,0.5,1.5,0.8,2.2,1.1c3.7,1.4,7.7,1.9,11.7,2.4c21.7,2.5,46.7-6.3,58-25.8
			c5.3-9.1,6.8-18,5.8-26.6c2.6-1.5,5.7-6.5,6.3-8.3c2-3.9,2.3-8.4,2.7-12.7c0.6-10-1.5-20-5.5-29.1c1.8-0.4,3.7-0.9,5.5-1.3
			c26-6,52.8-15.4,75.6-1.7c7.9,5,17.1,15.2,24.7,23.5c3.9,4.2,12.3,14.3,16.2,5.1c1.2-5.7-0.4-11.6-0.3-17.4
			c-0.8-18.1,3.4-35.3,10.9-49.9c8.5-16.5,18.9-32.4,22.6-50.9c2.7-10.9,1.9-22.2,0.2-33.2c-2-17.9-8.5-35.1-19.1-49.7
			c-5.7-7.9-11.7-15.8-19.5-21.9c-13.3-10-30.1-14.7-46.7-12.8c-21.7,1.3-43.3,4.7-64.5,9.4c-0.2,0.1-0.4,0.2-0.5,0.3
			c-2-0.2-3.1,0-6-1c-11.9-3.5-23.8-7.2-36.1-9.1c-7.7-0.9-15.4-0.9-23.1-0.5c-0.1-0.5-0.4-0.9-1-1.2c-5.6-4.2-15-12.3-24.4-13.4
			c-8.6-1.1-16.1,0.8-22.6,4.6c-10.1-0.7-20.4,1.9-30,5.1c-12.4,4-23.2,11.4-32.2,20.7c-8.4,9.6-14.1,21.4-18.3,33.4
			c-3.4,10.8-4.2,22.2-4,33.5c0.1,19.3,4,38.1,10.2,56.2c0.8,11.6,2.7,23.2,5.7,34.4c4.5,16.1,12,29.4,21.9,39.2
			c0.6,3,1.2,6.1,1.7,9.2c3.2,20.1,7.8,41.1,20.8,57.4c11.6,14.2,29.1,25.3,47.6,28.1c-0.8,0.4-1.4,1.2-1.5,2.2
			c0.5,6.5,0.4,14-0.9,18.5c-0.5,3.2-4.9,9.2-6.5,11.3c-13.9,14.5-34.5,19-54.7,15.2c-4-0.7-7.9-1.7-11.7-3
			c1.6-23.7-6.6-51.3-19.8-68c-7.9-9.9-22.2-17.4-34.5-11.4c-10.5,5.5-13,18.8-9.4,29.4c4.7,14.2,16.4,25,27.4,34.6
			c9.3,7.9,20.1,14.5,31.6,18.8c-1.3,13.3-7.5,25.5-16.6,32c-17.6,12.5-38.1,8.8-57.4-1.6c0.5-4.4,0.9-8.8,1.1-13.1
			c1.8-29.6-0.3-59.5-7.9-88.2c-3.4-13.3-7.9-26.4-14.6-38.4c-4.6-8.2-9.8-16.7-17.8-22c-19.6-12.5-45-2.1-48.7,21.2
			c-2.9,13.5-0.6,27.2,1.9,40.5c5.2,27.3,21.4,51.4,40.6,71c12.2,11.7,25.5,23.5,40.5,31.8c-1.2,11.6-3.1,21.5-7.1,33.3
			c-3.8,12.6-7.5,21.9-14.8,32.9c-5.3,8.2-12.3,15-20.6,19.6c0.1-0.6,0.2-1.2,0.2-1.9c1.6-31-7.1-62.5-22.6-89.3
			c-11-18.5-24.6-37.4-44.2-47.3c-8.5-3.4-18.1-5.3-27.2-3.6c-13,3.5-24.1,14.2-27.1,27.5C126.7,881.4,152.6,928.6,180.1,951.7z
			 M532.5,759.3c-3.3,13-9.5,21.4-20.7,27.9c-13.2,7.5-28.8,10-44.1,6.6c-0.1,0-0.2,0-0.2,0c1.2,0,2.3-0.1,3.5-0.2
			c9.9-1.2,18.9-5.9,26.7-12c15.8-11.7,16.7-29.8,5.2-45c-4.7-7-11.2-12.3-17.7-17.5c-13.6-11.3-27.4-18.7-39.3-30.7
			c20.3-1.7,39,2.3,56.3,14.1C518.9,714.3,537.3,739.3,532.5,759.3z M541.7,717.5c0.4,7.5,0.6,17.3-4.4,23.8
			c0.2-0.2,0.3-0.2-0.1,0.1c0,0,0,0.1-0.1,0.1c0,0,0,0.1-0.1,0.1c0,0,0,0,0-0.1c-0.1,0.2-0.3,0.4-0.4,0.5
			c-2.1-8.8-6.8-17.4-12.9-25.5c-14.5-19.3-37.5-31.6-61.6-33.1c-5.6-0.5-11.1-0.2-16.7,0.2c-1.1,0.2-2.4,0.1-3.6,0.4
			c-0.4-0.5-0.9-1-1.3-1.5c-6.3-6.9-11.6-14.5-16.2-22.6c10.7-4.3,25.4-7,39.1-6.1c10,0.5,22.2,4.5,32.6,9.2
			c8.1,3.7,17.7,8.4,23.1,12.9C532.2,686.9,539.2,700.4,541.7,717.5z M513.8,493.2c8.4,2,16.7,4.3,24.9,6.8c2.6,0.8,5.4,1.1,8.1,1.1
			c1.4-0.1,3.1,0.2,4.2-0.9c0.1-0.1,0.2-0.3,0.3-0.4c17.7-3.7,35.1-6.5,54.2-8c8.8-0.6,15.9-1.4,23.6,0.1c10.3,2.1,20,6.6,27.7,13
			c14.3,13,25.6,31,31.1,47.7c4.4,16,7.1,34.9,4.5,48.4c-3.9,22.9-17.8,39.8-26.9,61.5c-4.1,10-6.5,20.7-7.2,31.4
			c-0.7,8,0.7,26.2,0.6,27.4c0,0,0,0.1-0.1,0.1c-3.1-1.1-7.9-7.2-11.8-11.2c-8.7-9.2-17.4-19.5-29.6-24.1
			c-22.4-8.7-46.1-1.1-68.3,4.2c-3.4,0.8-6.7,1.6-10.1,2.4c-6.5-12.3-16.6-22.6-29.2-28.6c-18.7-9.8-39.4-17.6-60.8-14.9
			c-7,0.9-13.9,2.2-20.6,4.1c-2.1,0.7-4.4,1.3-6.4,2.4c-5.4-10.3-9.6-21.3-12.6-32.6c-5.6-19.9-8.9-39.4-8.5-58.9
			c0.8-17.9,3.8-37.5,10.7-54.2c17.1-11.8,36.7-16.4,56.8-18.7C484.7,489.9,498.8,489.2,513.8,493.2z M458.1,476.8
			c4.9,1.4,11.1,5.6,16,9.5c-1,0.1-1.9,0.2-2.9,0.2c-20.2,1.9-39.3,6.7-56.2,16.3c3.2-6.3,7.2-12,11.9-16.8
			C435.6,477.7,446,473.3,458.1,476.8z M366,644.6c-0.2-0.8-0.3-1.7-0.4-2.5c2.2,5.1,4.6,10.1,7.2,15.1c4.8,10.1,8.5,20.1,11.3,30.8
			C374.9,676.2,368.8,661.1,366,644.6z M413.8,763.1c-13.3-15.4-18.1-37.4-21.5-59.1c-2.8-17.2-8.1-34-15.6-49.7
			c-16.6-32.4-26.6-67.2-22.8-103.8c1.6-15.7,9.8-33.7,19.7-45.4c14.3-15,32.1-22.8,52.6-24.4c-7.9,6.9-14,16.6-18.4,26.7
			c-0.3,0.2-0.6,0.4-0.9,0.6c0.2,0.2,0.3,0.3,0.4,0.5c-2,4.8-3.6,9.7-4.8,14.3c-12.3,42.1-5.4,87.4,11.1,127.3
			c6.2,14.7,15.9,27.7,26.5,39.5c6.7,7.6,15,13.3,23.2,19.2c13.3,10.1,29.6,19.9,37.9,34.4c8,13.3,5.5,25.7-7,35.1
			c-4.1,3.1-12.4,8.4-19.5,9.7C454.3,792.6,428.8,780.7,413.8,763.1z M339.7,810.3c-9.8-9.5-18.9-21.3-19.1-32.8
			c0-22.3,25.3-22.2,38.8-3c11.1,15.3,17.6,38.9,17.4,58.9c0,0.7,0,1.5,0,2.2C362.9,829.9,350.6,820.9,339.7,810.3z M254.4,831.9
			c-15.8-17.7-29.1-39-33.5-62.9c-2.9-15-4.8-29.3-0.7-42.6c4.6-15.6,23.1-22.9,38.2-14.4c8.4,4.5,13,12.2,18.3,21.4
			c8.7,15.6,12.7,30.2,16.8,47.7c6.2,29.5,7.2,57.2,4.5,87.2C281.6,858.6,266.2,844.4,254.4,831.9z M140.4,840.3
			c4.1-10,14.4-16.7,22-18.5c8.6-1.2,17.4,0.6,25,4c17,9.3,28.9,25,39.3,41.9c14.7,24.1,23.2,52,24.1,79c0.3,5.2,0,10.2-0.6,15.1
			c-7.4,3.2-15.6,4.8-24.4,4.2c-17.9-1.7-37.3-11.2-50.8-25.9C151.2,914.9,129.6,871.4,140.4,840.3z"></path><path d="M461.5 585.6c.3 4.2 2.9 8.1 6.4 10.3 3.2 1.3 7.2.4 10-1.6 7.7-5.6 11.8-18.9 3-25.4-.5-.3-1-.8-1.5-1.1-.3-1.2-1.4-2.1-2.8-1.6C469 568.8 461.3 577.2 461.5 585.6zM475.7 571.3c.1-.1.2-.1.3-.2 3 2.8 5.4 4.1 5.2 8.6-.5 6.7-5.9 13.3-11 11.8-1-.7-5-4.7-4-8.8C466.8 579.9 471.1 573.5 475.7 571.3zM540.4 591.2c5-2.1 8.7-6.9 10.7-11.8 2.4-6.1 1.4-14-3.3-18.8-2-2.1-4.7-3.7-7.6-3.5-.7.1-1.5.1-2.2.4-.5 0-.9 0-1.4.4-8.3 3.7-15.2 12.7-14.4 22.1C523.5 588.1 532.4 594.2 540.4 591.2zM535.7 563.4c.8-.6 1.8-.9 2.6-1.4 1.2.1 1.5-.5 2.6-.1 2.7.8 5.8 4 6.4 8.4 1 5.9-.7 10-5.6 14.8-3.7 3.8-11.6 2.8-14.7-5.1C525.5 575.8 529.8 566.8 535.7 563.4zM618.9 589.9c5.1-2 7.9-7.1 9.4-12.1 2.3-8.9-1.2-25-12.2-25.8-1.1-.1-2 .6-2.5 1.4-13.2 2.1-17.5 20.9-10.9 31.2C605.8 590.2 613.3 593.1 618.9 589.9zM613.7 558.1c1.3.2 2.3-.4 2.8-1.2.2 0 .4.1.7.3 3.9 2.1 5.4 5.1 6.6 10.5 3.1 12.2-6.6 23.6-14.9 16.9C600.3 576.6 605.4 558.7 613.7 558.1zM1894.3 925.7c-5.2-4.2-11.7-6.4-18.1-7.9-24.2-5.2-49.4-5.8-73.8-1.9-71.5 11.1-129.6 42.2-186 86.4-16.9 13.1-34 26.5-48.8 42-.3.7-.2 1.4 0 1.9-8.4 3.5-16.8 6.9-24.9 11 1.6-2.5 3.2-4.9 3.7-5.4 10.9-12.5 23.9-22.8 36.1-33.9 11.3-10 23.6-19.1 33.9-30.3 22.7-23.7 38.9-52.8 49.9-83.6 19.7-49.7 18.5-104.4 8.9-156.2-.8-5.9-1.1-8.9-.9-15 0-4.1 1.9-12-4.3-11.8-2.4.3-4.4 1.7-6.1 3.2-3.7 3.3-7.4 6.6-11 10-15 13.9-28 29.9-39.9 46.6-16.8 24.9-32.6 50.9-44.3 78.7-3.7 9.8-7.9 19.9-9.3 30.4-.5-1.6-.9-3.2-1.4-4.8-3.2-10.5-8.5-20.2-12.9-30.3-4.5-10.9-8.3-25.2-10-38.6-2.3-20.1-12.4-1.9-18.1 5.3-25.2 37.4-36.6 82.4-41.2 126.8-3.6 31.5-1.7 63.7 6.5 94.3 4 15 10.3 29.2 15.8 43.7 3 7.5 6 15 8.8 22.5.9 2 1.5 4.4 2.7 6.2-2.1 5.9-4.1 11.8-6.1 17.7-.1.1-.1.3-.1.4-4.5 13.4-8.8 26.9-13 40.3 1.1-19.1 1.9-38.3-.2-57.3-2.6-16-8.5-32.4-19.5-44.6-.2-.2-.4-.3-.6-.4-.7-28.6-5.9-56.7-16.5-82.5-7.5-16-18.8-30-31.3-42.4-15.9-16.6-35.7-29.1-57.1-37.3-16.7-7-34.4-11.7-52.3-14.4-6.3-6.5-16.6-8.9-25.5-8.4-4.6.3-9.2 1.7-13.4 3.5-1.1.7-2.6 1.1-3.8 1.8-18.4-9-31.9-21.4-41.1-39.6-5.4-10.2-8-18.8-11.6-29.1-.1-.1-.2-.2-.3-.3 0-.4.1-.9.1-1.3.2.1.3.2.5.3 9 4.6 18.1-.8 24.3-7.4 6.8-7.8 7.6-18.9 7.4-28.9-.8-43.9-35.3-87.1-79.4-93.5-6.9-1.1-14-.9-20.9.7-1.6.5-3.7.9-5.6 1.7-1-1-2-1.9-3-2.9-4.5-4.4-10-7.5-15.8-9.9-17.6-8.3-38.1-5.8-55.3 2.2-12.1 5.2-22.4 13.7-31 23.5-15.5 16.7-25.2 39-24.9 61.9.3 21.9 10.6 45.7 32.9 51.9-.4.5-.6 1.2-.5 1.9 6.6 28.5 21.8 54.2 37 78.9 6.4 9.5 11.9 20.1 21.3 27 4.7 3.3 10.1 6 15.8 7.9-1.7.4-3.3.9-4.2 1-17.5 5.5-31.2 18.6-45.2 29.8-27.5 23.4-52.7 49.7-74 78.9-23.8 33.1-43 69.4-61.1 105.9-9.2 18.1-17 37-23.5 56.3-4 11.5-7.6 23.2-8.6 35.4-.6 10.9.4 21.9 3.6 32.4.5 1 .8 2.3 1.3 3.5-.4.3-.9.5-1.4.8-8.9 5.6-18.6 13.7-19.2 25-.1 4.5 2.3 6.6 6.6 7.2 6.4 1.3 12.6-1.9 18.5-4 5.6-2.4 11.2-5 17-6.9-6.6 8.2-7.8 19.6-8.2 29.8.1 3.5.2 7.1 1 10.5-7.3-1.3-14.6-2.8-21.8-4.8-24.4-6.5-49-11.6-73.9-15.8-14.3-2.4-28.5-6.4-43-6.4-5.5.1-10.9 1.3-16.3 2.3-2.2.5-4.6.6-6.5 1.8-.1.1-.2.2-.3.3-3.9-8.9-7.9-17.8-11.9-26.7.1 0 .2 0 .3 0 40.4-5.5 79.4-22.5 112.2-46.5 25.7-19.9 45.4-46.3 62.3-73.9 16.8-27.2 31.1-56.9 35.5-88.9 1.6-23.6-2.5-47.3-8.3-70.1-10.1-35.7-27.8-70.2-61.7-88.4 2.1-2.1 3.5-7.5 4.7-9.2 4.7-9.9 9.3-19.9 13.1-30.2 15.3-46.5 10.5-94.3-11.3-137.8-5-10.1-11.3-19.3-18-28.3-9.1-12.5-20.1-24.1-34.2-31.1-17.8-8.6-38.6-8.8-57.9-6.4-32.2 5.2-64.5 22.4-79.6 52.4-3.2 6.4-5.4 13.2-7.3 20.1-.1.9-.4 1.9-.7 2.9-3.2 2.7-6.4 5.5-9.4 8.3-25.5 24.5-41.2 58-47.2 92.6-2.7 18.2-5 37.9 2.8 55.1.7 1.4 1.5 2.8 2.4 4-1 .1-2 .4-2.9.5-5.4.9-10.8 2.4-16 4.2-22.4 7.2-42.9 18.9-61.9 32.5-14 10.5-27.8 21.5-39.7 34.4-30.8 33.7-53.3 74.1-72.7 115.1-11.8 25.8-21 53-23.9 81.3 0 .6 0 1.2-.1 1.8-13.9-2.1-28.1-1.5-42.1-1-17.8.8-35.6 1.8-53.4 2.4-11.7.6-23.6.9-35.2 2.4-2.2.8-2 4.6.6 4.5 23.6-2.2 47.3-2.5 71-3.8 20.2-.9 40.1-2.4 59 .2-.1 14.9 2.4 30.3 9.9 43.3 6.8 12 21.6 15.4 33.9 19 14.4 3.6 29.3 4.2 44.1 3.8 10.9 30.3 23.3 60 39.2 88 3.7 4.5 9.4 6.5 14.7 8.8 8.4 3.2 17 5.8 25.7 8.1 22.4 5.5 44.7 11.6 66.9 17.8 33.2 9 65.8 20.4 99.6 26.8 5 .9 10.2 2.4 15.3 1.6.7-.2 1.3-.5 1.9-.8.2.1.5.3.8.3 28.1 2.1 56.5 1.7 84.7 1 28.6-2.2 57.2-6 85.5-10.4 16.3-3.3 33.3-5.2 48.6-12.1 4.6-2.5 8-6.6 10.6-11.1 2.8 1 6 2.6 9.2 4.9 1.5 1.3 8.6 6.8 13 7.7 8.6 2.3 17.2-1.9 22.8-8.3 0 0 0 0 0 0 .3.6.8 1 1.4 1.1 16.7 6.2 34.5 8.5 52.1 9.9 17.9 1.4 35.9 2.3 53.9.7 54.6-5.7 108.3-23.2 155.2-51.6 45.6-27.8 81.5-69.3 110.7-113.5 5-8.3 9.5-17 13.7-25.9-2.8 77.8 20.9 177.9 52.1 246.8 3.2 7 6.5 13.9 9.9 20.9 1 1.9 1.9 5.2 4.6 3.6 3-2-.2-5.1-1-7.5-3.1-6.4-6.1-12.9-9.2-19.4-22.1-49.1-36.9-102.3-45.4-156.5 1.4-.3 2.2-1.8 2.4-3.2 1.1-4 2.4-7.9 3.8-11.7 3.7-10 7.7-19.9 11.6-29.8.5.3 1.1.6 1.7 1.3 1.3 1.1 2.4 2.4 3.4 3.8 0 .1.1.2.2.3 6.8 9.5 9.8 21.1 14.5 31.7 9 21.1 27.1 38.2 48.6 46.3 12.2 4.6 25.5 5.3 38.4 5.2 13.4-.5 26.6-2.8 39.8-5.1 11.3-2.4 22.8-4.4 33.3-9.3 4.2-2.2 11.9-6.2 9-11.9-2.3-2.5-5.6-3.9-8.3-6-6.6-4.4-14.5-11.3-21.7-17.7-15.5-12.9-31.9-24.7-49-35.3 21.9 9 45.7 13.3 69.3 13.4 18.1 0 36.3-3.2 53.3-9.4 5.1-1.9 10.2-4 14.7-7.2 1.7-1.2 3.5-2.6 4.7-4.3.1-.1.2-.2.3-.4.5-.7.8-1.5 1-2.4.5-3.9-1.3-7.7-3.4-10.8-3.5-5.7-9.3-9-14.8-12.3-10.4-6.1-20.7-12.1-30.9-18.5-32-19.5-65.8-41.2-104.4-42.6-13.1-1-26.2 1.8-38.2 7.2-9.9 4.2-19.3 9.6-28.3 15.5-4.6 3.3-9.8 6.2-13.8 10.2 5.3-16.8 10.6-33.5 16.2-50.2 22.4-2.2 42.7-.9 64.8 3.2 20.8 3.6 40.6 11.1 60.9 16.5 42.4 11.2 71.9 10.4 112.8-5.9 23-8.5 46.3-16.4 70.5-20.8 5.7-1 13.1-2.3 20.4-3.5 3.5-.6 7.1-1.2 10.5-2.5 1.7-.6 3.4-1.9 3.3-3.9-.3-4-6.3-4-8.9-6-22.7-14.9-48-24.9-73.7-33.4-36.3-12.4-75.1-15.8-113.3-14-21.9 1.1-43.1 7.5-63.8 14.3-16.2 5.4-32.1 11.7-47.1 19.9-9.4 5.2-18.5 11-27 17.5-1.3 1.1-2.8 2.1-4.2 3.2 1.6-4.6 3.2-9.2 4.9-13.8.6-.6.8-1.3.8-2.2.4-1 .7-2 1.1-3.1 3.9-10.8 7.7-21.3 11.7-31.6 10.2-2.8 20.5-5.4 29.5-6.5 12.7-1.5 25.6-1.5 38.4-2 39-1.1 78.2-1.4 116.4-9.6 48.1-9.1 95.2-27.7 132.5-60 17.9-15.9 32.6-35.4 44.4-56.2C1893.7 932.3 1896.2 928.6 1894.3 925.7zM1470.3 1078.7c6.5 8.9 12.1 21.9 14.5 33.8 2.7 14.3 2.1 28.7 1.8 44.4-.1 6.7-.6 13.4-.9 20.1-2.6-5.8-5.4-11.5-8.9-16.9-3.3-5.3-6.8-10.4-10.6-15.3-1-1-1.8-2.7-3-3.5C1467.7 1120.7 1470.2 1099.6 1470.3 1078.7zM1482.8 1182.6c-.5-.2-1.1-.4-2.1-.8-6.8-2.7-14.1-6.9-18.4-10.4-2-1.6-3.9-3.4-5.7-5.2-.1-.1-.2-.1-.2-.1 2-6.2 3.7-12.5 5.3-18.9C1469.9 1157.3 1477.2 1169.6 1482.8 1182.6zM1355.8 910.5c12.1 4.5 23.5 9.8 34.1 16.2 0 0 0 .1 0 .1-1.3 2.6-2.8 5.1-4.4 7.6-7.3 11.1-16.4 20.2-26.5 30.7-21.5 22.8-44.5 44.5-62.7 70.2-23 33.7-36.9 72.8-44.9 112.6-3.8 20.8-9 41.5-11.2 62.6-1.2 14.4-.8 29-.2 43.4 0 .7.2 1.2.6 1.5-11.4 7.5-23.6 14-36.4 19.6.1-.9-.2-1.9-.2-2.8-.1-1.9-.2-1.7-.2-2.3-3.9-44.5 9.6-84.9 21.8-127.5 9.2-31.2 14.4-63.4 19.5-95.5.7-5.3 1.4-10.7 1-16.1 0-.3 0-.6-.1-.9 17.6-11.3 31.1-28.4 43.3-45.2 14.4-21.1 37.3-57.1 28.3-83.2-.2-.4-.4-.8-.6-1.2C1330.1 902.5 1345 906.2 1355.8 910.5zM1199 1271.3c.3 1.7 0 3.6.8 5.1 0 .1.1.1.2.2-16.1 6.7-32.9 11.9-49.5 15.9-22.8 5-43.8 10.8-66 13.3 10.9-24.3 16.6-50.7 20-77.1 1.9-21.1 1.4-42.4 3-63.5 1-18.9 3-37.8 4.5-56.7 1.1-24.6 5-46.3 13.7-69.7 2.8-7.1 4.7-11.8 8.9-18.8.2-.3.4-.6.6-.9 1.6 2.5 3.3 5 5.1 7.3 7.2 7.6 16.8 12.7 26.7 15.8 14.4 4 29.8 3.7 44.4.5 9.4-1.9 18.7-4.3 27.2-8.8.9-.5 1.9-1 2.8-1.5.2 13.3-3.2 26.5-5.2 39.6-3.9 22.7-8 45-14.9 68.2C1208.9 1182.8 1194.6 1226.3 1199 1271.3zM1274.3 894.6c4.4-2.1 9.1-3.6 14-3.8 9.3-.3 19.7 3.2 23.9 10.7 13.6 29.8-30.8 91.3-55.7 114.3-11.6 10.8-24.7 17.8-41.3 21.3-16.7 4.2-36.2 4.9-51.5-1.2-9.8-4.2-18.4-9.7-22.9-17-11.4-17.6-15.1-36.6-15-56.6 0-8.8 1.5-15.1 4.6-23.6 5.1.5 10.2.2 15-1.4 2.9 13.5 6.7 26.9 10.2 40.3 3.1 11.3 6 23.6 14.2 32.4 19.8 20.2 47.2 4.2 61.1-14.8 21.6-26.1 27.3-63.3 41.1-91C1274.4 900.3 1276.3 897.4 1274.3 894.6zM1223.2 850.8c7.1 14.9 17.6 28.5 31.6 37.5 5 3.7 13.7 6.8 15.6 9.6-2.6 4.3-7.2 14.4-9.7 21.1-9.8 26.6-16.1 52.3-33.7 74.2-12.9 17.1-37.6 31.8-54.8 12.1-5.7-7-8.9-17.4-11.5-27.5-3.5-13.3-7.2-26.6-10.3-40-.2-.7-.4-1.4-.5-2.2.6-.3 1.2-.6 1.8-.9 11.3-7 20-17.4 27.5-28.2 10.7-15.2 18.9-31.9 26.7-48.7 4.8-9.5 8-17.8 9.8-25.5C1217.9 838.5 1220.3 844.8 1223.2 850.8zM1020.3 750.6c7-30.3 31.2-57.2 59.9-66.3 10-3.1 20.1-4.6 29.9-2.6 10.6 2.5 21 6.7 28.6 14.4.6.5 1.1 1.1 1.6 1.6.2.8.8 1.5 1.7 1.7 2.5 2.6 4.6 5.2 6.2 7.6 1.1 1.2 1.7 3.7 3.8 3.2 1.2-.1 2.1-1.3 2.2-2.4-.1-1.7-1.7-3-2.5-4.4-1.3-1.9-2.8-3.8-4.4-5.5 19-6 42.6 2 57.2 13.1 22.7 16.8 37.2 40.3 40.2 68.1.7 7.1.9 19.7-2.7 27.4-2.4 5-10.2 12.8-17.3 12 1.4.3-2.1-.4-2.6-.6-.2-.1-.4-.1-.5-.2-.6-.3-2.1-1-2.5-1-.5 0-1 .1-1.4.3-.1-14.1-5.2-27.8-15-45.5-5.4-9.7-11-19.3-17.7-28.2-1.4-1.5-2.1-3.8-4-4.6-1.3-.3-2.6.6-3 1.8-.1.6-.2 1.2.1 1.7 0 .1.1.1.1.2-.7 1-.4 2.3-1.1 4.1-1.4 4.4-2.2 5.7-4.4 9.9-11.4 20.3-27.8 33.6-50.9 34.3-4.9.2-8.2-.8-13.7-1.8.1-.3.2-.5.3-.8.3-.9.8-2 .3-3-1-1.9-3.9-1.1-4.3.8-2.2 7.3-4.5 11.6-10.2 16.7-5.9 4.9-14.9 9.2-22.9 11.8C1030.9 828.4 1012.2 785.1 1020.3 750.6zM1105.5 923.3c-8.3-7.6-12.7-16.2-19.3-26.1-9.7-15.6-18.7-31.6-26.2-48.4-3.8-8.5-6.4-16.1-8.9-26-.1-.3-.2-.7-.2-1.1 14.9 1.3 29.5-5 42-12.6 5.1-3.5 9.3-8 12.2-13.4.4-.8.8-1.7 1.2-2.5.2.2.5.3.9.4 15 4.4 31.7.8 44.8-7.4 11.5-7.4 19.8-18.8 26.2-30.7.6-1.3 2.4-4.9 3.4-8.1.5.7 1.1 1.4 1.6 2.1 4.2 5.7 7.9 11.9 11.4 18 12.8 21.8 23.6 44.6 15.8 67.5-4.8 14.7-11.1 26.2-18.1 40.6-10.4 20.2-23.1 40.8-39.1 52.8-1.6 1.3-3.4 2.4-5.2 3.2-1.1-.4-2.3.2-2.9 1.2C1132.1 937.2 1116.3 931.7 1105.5 923.3zM1065.8 977.8c1.4-1.2 2.8-2.5 4.2-3.7 14.3-11.9 28.3-24.7 44.1-31.1 4.2-1.3 6.7-2 10.2-2.4.3 0 .5-.1.8-.2-3 7.9-4.1 16.6-3.9 25 .1 17.3 3.6 35.1 12 50.2-2 .2-3.4 3.8-4.4 5.4-2.6 4.7-4.8 9.7-6.7 14.7-5.3 13.9-9.3 28.3-11.8 43-2.1 13-2.5 26.1-3.7 39.2-2.1 22.2-3.8 44.4-4.7 66.6-.7 16.8-.5 33.6-2.6 50.2-2.4 16.1-6.3 34.4-11.8 51.5-2.4 7.3-5.5 14.4-7.9 20-1 .1-1.9.2-2.9.3-3.4.4-9.4 0-11.8-.1 0-.7-.1-1.4-.1-1.9-.4-6.5-1-12.9-1.8-19.3-1.4-11-4-21.8-5.4-32.8-1.3-9.6-1.4-19.1-1.8-29.9-.9-34.1.4-68.1.3-102.2-.1-17.1-1.7-34.2-2.7-51.3-.5-24.2-1.7-48.3 5.1-70.4C1060 991.4 1063.5 984.7 1065.8 977.8zM1051.2 1231.9c.1 17.1 3.5 33.8 6.4 50.5 1.3 9.1 2 16.4 2.4 24.7-.2.2-.3.4-.4.7-4.5-6.4-9.2-12.7-15-18-10.6-9.4-22.1-18.6-35.1-24.4.1-.1.3-.2.4-.3 5.5-4.1 14.6-10.6 19.2-18.7 12.5-19 17.2-41.5 18.8-63.9.2.2.4.4.6.6.4.4 1 .6 1.6.6.2 0 .4 0 .6-.1C1050.6 1199.6 1050.6 1215.7 1051.2 1231.9zM908.2 1245.2c.8-12.3 4.2-22.9 8.4-35.4 9.7-29.6 22.4-55.1 37.1-83 14.8-28.1 30.5-56 49.5-81.6 15.2-20.4 34.8-41.7 55.1-60.7-4.8 12.2-8.1 24.9-9.3 38-2.4 31 1 61.8 2.1 92.7.3 21-.1 41.9-.3 62.9-.3-.3-.6-.6-.8-.9-7.1-7-15.6-13-24-18.1-2.3-.3-3.9 3.2-1.7 4.4 6.7 4.9 12.4 8.3 17.8 13 .5.5 1 .9 1.5 1.4-.3 1.6 0 3.6-.4 5.1-1.8 23.6-6.2 44.4-19.9 64-3.1 4.7-9 9.2-14.9 13.6-1 .8-2.2 1.5-2.3 2.9 0 .1 0 .2 0 .3-4.9-1.9-9.9-3.4-15.2-4.2-9.9-1.9-20-.8-30 .5-17 2.3-33.3 8.1-48 16.8C908.9 1267.4 907.9 1256.2 908.2 1245.2zM763.1 1323.1c8.3-2 14.5-3.4 23.6-3.4 9.4.2 23 3.3 34.2 5.4 23.3 4.3 46.7 8.4 69.6 14.5 11.5 2.9 23 5.8 34.6 7.8 2.3 3.4 6 5.4 10.2 3.2.6-.3 1.2-.7 1.7-1.1.6 3.7 1.9 7.2 4.1 10.2 5.2 5.8 10.9 6.5 15.7 3.1 0 3.2.6 6.1 1.9 8.6-14.9 2.2-29.7 4.4-44.6 6.5-.1-.3-.2-.6-.5-.8-1.7-1.1-3.9-1.3-5.8-1.9-17.5-4.7-35.6-6.6-53.3-10.1-12.9-2.6-25.3-7-37.7-11-14.3-4.5-28.5-9.1-42.8-13.4-1.1-.3-2.4-.9-3.5-.2-.1.1-.2.2-.4.3-2.4-5.9-4.8-11.7-7.4-17.5C762.9 1323.1 763 1323.1 763.1 1323.1zM904.4 1379.3c-27.5 3.9-55.1 7.3-82.9 9-8.8.6-17.6 1.1-26.4 1.3-2.6.4-6.2-.4-8.7.5-1.8-13.7-9.8-30.9-12.1-38.6-.8-2.2-1.7-4.4-2.5-6.5 25.8 7.5 51 16.9 77 23.7 14.1 3.2 28.5 4.8 42.7 7.7C895.9 1377.2 900.2 1378.2 904.4 1379.3zM947.5 1017.8c5.1 22 8.6 42.5 7.5 64.1-1.2 12.7-5.4 26.1-10.3 39.4-7.7 20.8-19.1 40.5-31.9 60.2-14.5 22.7-33.5 45.2-53.2 60.6-25.7 19-52.3 31.5-82.5 40.2-9.1 2.3-16.6 4.4-24.9 5.4-1.4.3-3-.1-4.1 1-.2.1-.3.3-.4.5-2.5-5.8-5-11.5-7.4-17.4-4.1-10.2-8.2-20.3-12.2-30.5 22.1-8.1 43.9-18.2 61.2-34.5 29.9-27.7 44.3-60 48.4-100.2 1.1-9.5 1.9-19.1 2.4-28.7 0-1.5.1-3 .2-4.5 4-1 7.8-2.9 11.2-5.2.3-.2.6-.4.9-.6.1 0 .1.1.2.1 14.9 3.4 29.9-3.2 40.7-13.4 10-9.7 16.6-22.4 21.7-35.2 5.2-15.7 2.1-34.3-8-47.4-4-4.9-8.8-9.2-14.2-12.5 1.8-3.5 3.1-7.3 3.2-11.2-.2-5.9-2-11.7-5-16.8C921.7 949.6 938.3 983.4 947.5 1017.8zM663.8 933.4c-.2-1.1-.1-2.7-.6-3.8 2.5.8 5.1 1.3 7.8 1.6-.4.7-.5 1.4-.1 2.1 6.4 15.3 10.5 35.2 13.5 53.4 4.2 21.7 7 43.7 9.6 65.7 3.1 25.3 7 50.7 15.6 74.8 2.8 6.1 5.5 27 15.6 19.3 6.6-6 9-15 13-22.7 6.5-13.9 13.3-27.6 20.1-41.4 17.6-34.4 37.2-68 58.9-100 3.5-5 7.1-9.9 10.7-14.8.6 2.6 1.3 5.2 2.1 7.7-7.6 6.7-13.3 15.5-18.4 24.2-5.8 10.5-10.9 21.7-12.9 33.6-4.1 23.1 8.9 35.6 30.4 40.2 2.1.6 4.3.8 6.4.7 0 0 0 0 0 .1-.1 2.4-.2 4.9-.3 7.3-.5 8.8-1.2 17.5-2.3 26.2-2 17.4-6.5 37.6-14 52.6-14.1 27.5-33.9 49.1-61.3 63.3-9.3 4.6-15.9 7.7-25.4 11.4-1.8.9-4 1.2-5.7 2.1-12.2-30.6-24.4-61.3-37.1-91.7-2.8-6.1-4.9-12.8-9.4-17.9-6.6-5.9-15.4-8.9-23.9-10.8-9.1-1.8-18.3-3-27.5-3.7.2-.5.4-1.1.6-1.6 9.7-26 17.6-52.6 23.7-79.6 6.4-25.7 10.7-52 11.7-78.5C664.6 946.7 664.6 940 663.8 933.4zM735.4 819.5c3.6-4.3 6.5-9.2 8.6-14.3 4.2-9.3 7.6-18.9 10.3-28.7 2.1-7.9 4.7-15.8 6.7-23.7 9.3 6.7 20.1 11.4 30.4 16.3 13.7 6.8 29.7 15.2 40.3 23.2 6.8 5.8 10.5 12.9 16.2 20.9 1.7 2.4 3.2 4.9 4.7 7.4.3 2.5.6 4.9.8 7.4.7 6.5 1.1 11.9 1.1 19.3-.4 18.2-3.6 36.6-10.2 51.3-7.2 14.2-18 27.1-29.3 35.1-13.1 8.8-30.4 10-44.4 3-22.4-11.2-31.7-40.3-35.7-65.8-1.6-11.4-2.4-21.8-1.5-34.2.5-5.4 1.1-10.8 1.9-16.2C735.5 819.9 735.4 819.7 735.4 819.5zM733.9 889.3c5.1 19.9 14.2 37.8 28.3 47.7 17.7 12.9 43.9 11 60.2-3.4 1.5-1.3 2.9-2.6 4.4-4-2.5 10.5-2.3 21.6-.2 32.2-1.4 1.7-2.7 3.8-3.5 4.7-4.1 5.6-8.2 11.2-12.1 16.9-20.4 30.7-39.1 62.6-55.9 95.4-7.1 14.3-14.1 28.6-20.9 43.1-3.7 7.6-8 19.1-12.3 21.5-1.8 1.5-9-21.6-12.5-33.5-11.4-43-12.2-88-21.4-131.5-3.1-15.9-6.1-32.4-12.8-47.1 5.5-.1 11.2-1.3 16.6-3.6 13.5-5.7 24.2-16.4 33.8-27.2C728.5 897 731.4 893.3 733.9 889.3zM645.2 899.5c-3-18.3-.1-37.4 4.5-55.8 8.3-32 24.1-59.2 48.9-80.8 1.3.7 3.2 0 3.6-1.5.1-.6.3-1.2.4-1.8.4-.4.9-.7 1.3-1.1 4.6-3.8 8.8-7 12.2-9.9 1.3-1.3.3-3.9-1.7-3.7-3.6 1.4-6.3 4.7-9.4 6.9-.2.2-.4.4-.6.5 9.9-34.2 36.2-54.9 71.7-63.6 11.9-3.2 23.9-3.9 37.3-3 11.6.6 26.9 4.2 37.8 12.9 7.2 4.4 18.4 17.4 23 23.9 10 13.1 18.3 27.3 24.3 42.7 16.7 39.7 18.1 87.9.7 128.9-3.6 8.3-6 13.6-10 21.9-1 2.4-2.4 4.6-3.4 7-6.3-3.2-12.7-6.1-19.3-8.6-2-1-4.4 1.3-3.4 3.4 1.9 1.9 5.3 2.3 7.7 3.6 3 1.3 6 2.6 8.9 4.1.6 1 1.8 1.7 2.4 2.7 6.3 6.5 10.1 16.7 8.4 23.8-.6 2.5-1.1 3.6-1.9 5-1.4-.8-2.9-1.6-4.2-.5-2.3 2.1-.5 3.9 1.8 4.8 2 1.1 3.9 2.2 5.8 3.5 3.3 2.1 8.7 7.2 12.2 11.8 8 11.5 11.7 30.5 4.5 45.5-6.4 14.8-16.2 31-32 38.2-4.2 2.2-12.1 4.2-16.6 3.6-.8 0-1.6-.1-2.5-.3.1-.1.2-.1.3-.2.6-.6 1-1.7.6-2.6-1.2-2.7-3.7-.8-5.2.6 1.2-.8-3.4 2.4-4.3 2.9-7.3 4.7-11.7 6.3-19.4 4.3-12.2-2.7-23.5-9-26.2-20-4.3-18.7 7.1-40.5 18.7-58 2.7-4.1 5.7-7.3 9.3-11.1.1.1.2.2.3.2 1.4.7 3.1-.2 3.5-1.6.4-1.7-.9-3.3-1.2-5-1.1-3.9-2.1-7.5-2.8-11.1 0-.3 0-.7-.1-1 0-.1-.1-.1-.1-.2-1.5-7.4-2.1-14.4-1.4-22.2.6-5.6 1.6-8.8 3-14.8 0-.3-.1-.5-.2-.7 6.2-6.9 11.5-14.7 15.7-22.9 6-12.5 8.2-26.4 10.1-40 1.2-9.9.9-19.9 0-29.8 3.1 5.5 6.1 11.1 9.7 16.3 6 7.5 13.8 14.3 22.9 17.5 1.8.2 3.4-1.9 2.5-3.6-1-1.4-3-1.5-4.4-2.5-4.7-2.4-6.5-3.8-10.1-6.9-7.9-6.7-11.5-14.4-16.7-23.9-1.7-3-3.5-6-5.3-9 0-.2 0-.4-.1-.7-.1-.7-.7-1.3-1.3-1.5-4.9-7.9-10.3-15.6-15.9-23.1-4.6-5.6-11-9.2-17.1-13-9.9-5.9-20.1-11.4-30.5-16.4-9-4.2-18.1-8.4-26.4-13.8-2.5-1.7-2.7-1.8-5.2-3.9-.4-.4-1-.6-1.6-.6-1.9 0-3.2 2.5-2 3.9-5 17.1-9 34.6-16.1 51-3.3 7.7-6.9 15.4-14.2 21.1-3 2.5-7.5 5.4-12.6 6.8-1 .4-5.2 1.2-4 1-.2 0-.5.1-.7.1-.9.1-1.8.2-2.4.9-.9.8-1.1 2.4-.2 3.3 1.8 1.4 4.5-.2 6.6-.4 4.6-1.2 9-3.1 12.8-5.8 1.3-.9 2.6-1.9 3.8-2.9-2.3 16.7-1.9 38 2.3 58.1-5 9.6-10.6 15.5-18.4 23.4-7.9 7.8-16.2 14.4-25.2 17.8C667.8 931.7 649 922.3 645.2 899.5zM465.5 1246.8c-6.4-2.2-15.5-5.5-19.9-11.4-7-8.8-10.8-27.1-11.2-38.9-.6-21.4 4.9-40.3 11.5-61.1 15.6-43.1 41-88.9 67.9-124.7 25-32.1 55.2-55.9 90.9-74.5 9.1-4.3 21.6-9.3 33.3-12.4 4-.8 5.9-1.5 9.3-1.8.9-.1 1.8-.6 2.2-1.5 3.1 3.6 6.9 6.3 11.1 8-1.1.4-2 1.7-1.7 2.9 1.8 12.6 1.1 26.1-.2 40-1.6 17.2-3.8 31.6-7.6 47.7-6.5 29.8-14.5 59.2-25.1 87.8-.7 1.9-1.4 3.7-2.1 5.6-12.7-.9-25.4-1.1-38.1-1.4-3.3-.1-6.5-.2-9.7-.4 6.1-14 11.1-28.5 13.3-43.6 1-6 1.2-12 1.5-18 0-.6-.2-1.2-.6-1.6-1.1-1.1-3-.6-3.7.7-.7 1.5-.3 3.4-.6 5.1-.6 13.3-2.7 23.8-6.7 36.8-2.1 7-5.6 13.6-7.8 20.5-26-1.4-51.1-4.5-78.1-6.3-3.9.2-16.5-2.5-22.5-.7-6.7 2.8-7.6 9.4-5 15.6 2.3 6 5 11.9 7.4 17.9 9.7 23.5 18.1 46.1 25.8 69 .9 1.8.9 5 3.1 5.7 0 0 .1 0 .1 0 4.4 13.8 8.9 27.6 13.8 41.3C498.6 1253.7 482.7 1252.6 465.5 1246.8zM777.3 1404.6c-33.5-3.8-71.4-17.4-105.9-26.8-23.1-6.3-46.1-13-69.4-18.6-10.1-2.6-21.1-5.8-29.1-9-5.5-2.5-9.9-3.9-12.9-7.9-17.6-32-33.5-71.5-45.3-107-3.7-10.8-7.3-21.6-10.5-32.6-.2-1.1-1.1-1.6-1.9-1.6-7.1-20.7-16.2-45.3-25-66.3-4.7-12.5-13.3-25.4-4.2-26.9 39.6 2.1 91.7 8.7 137.2 9 13 .5 23.8 1.2 37.2 3.4 10.7 1.5 21.4 4.7 28.2 10.3 2.8 2.4 3.8 5.6 5.9 9.8 3.7 8.1 7 16.5 10.3 24.7 15.8 37.4 30.1 75.4 45.6 113 11.4 27.6 25 54.4 34.9 82.6C777.7 1374.2 788.3 1403.8 777.3 1404.6zM976.8 1389.5c-35.5 7.6-72.2 12-109.7 15.3-22.1 1-44.2.4-66.2.2-6.2-.1-10.7-.4-15.9-.8 1.4-2.6 2-5.9 1.9-9.6 3.3-.2 6.5-.2 9.8-.3 10.5-.3 21-1 31.5-1.7 35.1-2.6 70.3-7.4 105.1-12.8 9.6-1.5 19.3-2.7 28.9-4.2 2.5 2.1 5.8 3.5 10.1 3.8 12.8.2 23.7-6.2 34.4-4.7C1000.5 1384.3 992.9 1385.7 976.8 1389.5zM1427.3 1221.5c-26.7 41.3-60.5 81.2-101.2 108.5-32.7 21.7-66.5 36.1-104.6 46.2-28.6 7.7-55.6 12.5-85.7 11.6-19-.6-35.4-1.8-54.5-5.2-5.4-1.1-10.8-2.3-16-4-2.1-.4-4-1.6-6.1-2 .8-.9 1.3-1.9.9-3-.2-.9-1.2-1.4-2.1-1.4-1.8.1-2.6 2-3.8 3.1-2.3 2.6-4.9 4.9-6.3 5.9-4.6 3.1-8.6 3.7-14.3 2.1-3.7-.9-8.9-5.6-13.8-8.9-14.4-9.4-29.2-2.3-42.1-.1-6.1.8-10.9-.5-13.6-3.8 0 0 0-.1 0-.1 0 0 0 0 0 0-2.2-2.7-3.1-6.6-2.2-11.6-.1-1.1.7-1.5.4-3.2 3-6.6 6-12.7 10.6-15.9 4.2-2.5 9.3-4.2 13.9-4.7 2.6-.5 5.5.3 8-.3 1.5-.5 2.2-2.7 1-3.9-.7-.7-1.8-.6-2.7-.6-2.2-.1-4.4-.1-6.6.2-6.5 1-13.3 3-18.3 7.5-2.6 2.6-4.9 5.6-6.6 8.8-2.2 4.5-3.4 8.2-5.3 10.4-3 3.2-3 3.1-5.6 2.9-3.6-.9-5.9-2.8-7.7-7.5-.8-1.7-1.4-5.6-1.7-8.6 1.3-3 1.9-6.3 2.3-9.5.2-2.8 2.3-8.4 3.8-9.7 4.5-6 15.4-8.9 22.1-10.1 2.8-.5 5.7-.9 8.6-1.3.6 0 1.2-.3 1.7-.8 1.9-2.1 0-4.7-2.7-3.8-5.2.7-10.4 1.6-15.5 3-5.5 1.6-11 3.8-15.3 7.7-3.4 3-5.7 7.2-6.6 11.7-.8 4.1-1.2 7.7-2.1 10.4-.5.4-.8 1-.8 1.6 0 0 0 .1 0 .1-.3.6-.7 1.2-1.2 1.7-5.7 6.1-9.7-5.2-8.7-16.8.9-12.1 3.1-23.1 11.9-28.1 3.6-2.2 7.8-3 13-4.7 4.9-1.5 9.7-3.6 14.7-4.7.8-.3 2-.2 4.4-.6.6 0 1.2-.3 1.7-.8 1.5-1.3.7-4.1-1.5-3.9-7.1.5-13.6 3.5-20.4 5.6-5 1.5-10.4 2.9-14.9 5.7-.4-.6-1.2-1-2.3-.7-9.9 2.3-18.7 7.7-28.3 10.8-5.2 1.6-6.4 2.1-11.1.8-2 .1-1.8-6.4 2.6-12.3 3.9-5.4 12.2-10.8 20.5-15.5 14.3-8.3 29.7-13.1 45.4-15.1 9.6-1.2 18.4-2 26.7-.4 13.1 2 23.6 7.3 34.9 15.3 7.1 5.1 16.9 12.6 23.7 20.7 4.4 5.4 6.8 8.8 10.9 14.8 1.2 1.6 2.3 4.8 4.9 3.3 2.8-1.9.3-4.7-1.6-7.1.6.1 1 0 1.4-.2 14.2 1.1 28.4-1.2 42.3-3.9 15.4-3.3 30.8-6.6 46.1-10.2 60.1-14.6 123.7-45.4 149.9-104.8 8.8-22.1 9.6-46.6 7-69.9-1.6-15.2-5.8-30-11.6-44.2-1.7-4.1-3.6-8.1-5.5-12.1-.6-1.1-2.1-1.4-3.2-.7-2.1 1.3-1.1 3.3-.2 5.1 1.8 3.8 3.6 7.6 5.2 11.5 4.7 11.5 8.7 25.6 10.5 39.6 2.8 22.3 2.3 45.4-5.5 67-11 26.7-30.3 47.7-53.9 64.1-.5-14.4-1-28.9.3-43.3 1.5-15.2 4.8-28.6 7.8-44.5 5.4-30.1 13-60 25.6-87.9 6-14.2 18.7-36.6 28.5-48.2 14.8-19.5 32.6-36.4 49.3-54.2 12.1-12.8 25.1-24.9 34.6-39.8 1-1.8 2.3-3.6 3.2-5.5 7.8 5.1 15.2 10.8 21.8 17.4 14.3 14.1 25.9 27.4 34.3 45.7C1478.8 1065.2 1465.9 1153.5 1427.3 1221.5zM1450.7 1182.2c.8 1.4 2.1 2.7 2.7 4.2 7.1 11.5 9.6 22.9 12.3 36.6.4 1.9.7 3.7 1 5.4-5.4-11.1-11.3-22-19.3-31.4.2-2.7.4-5.4.5-8.1C1449 1186.7 1449.9 1184.5 1450.7 1182.2zM1453.5 1279.3c-.2.6-.4 1.3-.6 1.9-1-6.7-1.9-13.4-2.7-20.1-.6-5.7-1-11.6-1.5-17.5 5.4 1.8 10.9 3.3 16.6 2.9.2 0 .4 0 .6 0C1461.6 1257.3 1457.1 1268.1 1453.5 1279.3zM1466.9 1239.8c-.3.8-.2 1.4-.1 1.8-.9.1-1.7.3-2.5.2-3.4.1-6.1-.4-10.4-1.6-1.9-.4-3.7-1.4-5.6-1.8-.6-9.9-1.1-20-1.1-30.2-.1-1.2 0-2.5 0-3.7C1455 1214.9 1460.8 1227.5 1466.9 1239.8 1467 1239.8 1467 1239.8 1466.9 1239.8zM1472 1230.5c-1.2-8.9-3.3-17.7-5.5-26.4-2.2-7.5-5.3-14.9-9.5-21.5-1.2-1.5-1.9-4-3.8-4.7-.2-.1-.5 0-.7 0 .8-2.2 1.6-4.4 2.3-6.6 6.5 6.3 14.3 11 22.6 14.4 2.5 1 5.1 2 7.8 2.7.1.3.3.7.4 1C1481.2 1203.1 1476.7 1216.9 1472 1230.5zM1639.6 1317.7c-26.5 6.8-55.8 12.5-82.3 8.8-21.2-3-38.2-14.2-51.7-31.3-7.4-8.7-13.1-25.9-18.4-38.3-.7-1.8-3.9-7.8-7.4-12.3 8.7 1.8 16.8 4.3 23.8 7.1 30.7 12.7 55.5 36.1 85.5 50.3 12.2 5.5 25.6 8 38.9 9.1 7.8.7 15.7.8 23.5.3 1-.2 2.1-.2 3.2-.2C1651.3 1313.7 1645.4 1316.1 1639.6 1317.7zM1617.1 1277.7c12.2 9.3 23.1 20.4 36 28.7-63.2 4.4-79.8-22.4-132.9-52.3-12-6.7-25.2-11.2-38.6-14.1 6.6-3 14-6.6 22.1-8.4 15.5-3.3 36-1.4 50.9 5.6 9.2 3.9 17.5 9.4 25.8 14.8C1594.2 1260.5 1605 1268.3 1617.1 1277.7zM1551.7 1158.7c14.4-2.8 31.4-1.3 47.3 3.2 38.3 11.8 74.1 38.5 110.2 59 5.9 3.3 11.1 9.9 11.3 15.2-24.4 1.2-46.4.3-69.9-6.5-13.8-4.1-28.9-11.3-43.4-18.3-26.8-13.5-54.9-27.2-85.5-27.5-7.3-.2-14.6.1-21.9.9C1514.8 1173.8 1533.1 1163 1551.7 1158.7zM1500.8 1189.2c8.2-.9 16.6-1 24.8-.5 35.6 1.3 69.5 23.7 104 38.3 18.4 8.2 38.2 12.6 58.3 13.7 9.1.3 18.3.7 27.4.3-8.9 5.5-19.2 8.3-30.4 11.1-36.2 8.3-77.9 2.5-111.9-14.2-8.7-4.4-15.2-8.6-21.8-14.4-10.6-9.3-20.4-19.7-33.1-26.3-6.3-3.3-13-6.2-19.9-7.7C1499.1 1189.4 1500 1189.3 1500.8 1189.2zM1503.7 1196.1c5.6 1.8 15.5 6.9 22 11.6 8.2 5.8 17.6 16.1 27.5 23.7-2.3-.9-4.7-1.7-7.1-2.5-14.1-4.1-29.2-4.7-43.5-1.7-6 1.2-13.4 4.4-17.1 6.2-3.7 1.9-8 3.1-11.4 5.3-.1 0-.2 0-.3 0 1.6-4.2 3.1-8.4 4.6-12.7 3.6-10.7 7.1-21.5 10.5-32.3.1 0 .2 0 .3 0C1494 1193 1498.2 1194.2 1503.7 1196.1zM1563.5 894.4c3.7-28.2 19.1-54.9 34.1-81 16.5-27.9 33.4-52 56.7-74.2 4.2-3.7 9.1-9 12.8-11.7 0 .2-.1.3-.1.5-8.2 65.8-26.7 132.8-58 191.3-12.4 22.9-27.3 44.3-41.2 66.3 1-11.3 1.6-22.7 1-34-.6-18.4-2.9-36.9-7.5-54.8C1562.4 896.6 1563.5 895.7 1563.5 894.4zM1839.1 1116.6c1.5.8 3.1 1.5 4.7 2.2-10.8 2.7-23.1 3.8-35.3 6.6-15.9 3.4-31.6 8.1-46.9 13.5-42.7 15.9-66.2 25-111.3 15.3-19.4-3.7-37.9-10.6-56.9-15.7-12.6-3.6-25.6-5.6-38.6-7.3-12-1.4-24.1-2.1-36.2-1.4-.6 0-1.2.1-1.8.2 5.5-2 11.2-3.7 16.8-5.2 43.9-11.1 92.9-14.9 137.7-9.3 25.1 3.3 50 8.3 75.3 9.3 22.6 1.2 45.2-1.5 67.6-4.2 7.8-1.1 15.8-1.6 23.6-2.9C1838.4 1117.5 1838.8 1117.1 1839.1 1116.6zM1513.6 1125.2c31.5-26.2 73.8-41.9 115.8-51.8 25.5-5.6 57.4-4.5 83.5-1.7 33.8 3.8 64 14.8 94.4 27.5 9.3 4 17.9 9.1 26.5 14.4-25.9 3-51.8 7-77.9 6.8-24.3-.2-49.2-4.4-74.6-8.3-27.6-4.4-55.6-4.8-83.4-2.5-24.1 2.1-48.2 5.6-71.4 12.4-5.6 1.6-11.1 3.5-16.5 5.7.2-.7.4-1.3.7-2C1511.7 1126.2 1512.9 1126 1513.6 1125.2zM1515.2 1056.5c-.5 9.5-2 18.9-2.5 28.4-.3 6.1-.2 12.2.7 18.3 0 .4.1.8.2 1.2-.5 1.4-1 2.7-1.5 4.1-7.6-19.1-15.8-39.5-22.1-57-5.5-16.7-8.7-34.2-10.4-51.7-4.2-58 9.6-132.8 44.1-179.8-9.5 41.7-14 84.7-14 127.4.6 22 4.1 44.6 5.1 64.9C1515.5 1026.9 1515.9 1041.7 1515.2 1056.5zM1517.4 1093.9c-.1-3.3-.1-7.3.1-10.5 3.1-26.7 3.5-53.6 1.5-80.3-2.1-26.3-5.7-49.5-4.3-75.7 1.2-31.4 5-64.7 10.6-93.7 1.2-6.7 3-13.3 4.4-20 .6 2.6 1 6 1.5 8.9.9 6 2.2 12 3.9 17.9 3.7 15.6 13.6 31.9 17.9 45.1 8.7 27.1 11.6 53.4 11.3 81-.3 9.4-1 18.8-2.1 28.1-4.1 6.8-8.1 13.6-11.8 20.6C1537.1 1040.5 1527 1067.1 1517.4 1093.9zM1534.2 1062c6.1-15.3 12.6-30.3 20.3-44.9 3.1-5.9 6.5-11.7 9.9-17.4 1.1-.2 2.1-1.3 2.2-2.4.1-.5.1-1 .2-1.5 14.4-23.6 30.5-46.2 44-70.3 19.1-35.8 34.7-73.6 44.6-112.9 6.3-23.6 11.1-47.6 14.6-71.8.4 6 1.2 11.9 2.2 17.8 6.4 35.9 7.6 74.1.3 108.8-3 15.1-7.9 29.8-13.8 44.1-7.5 19.8-17.1 37.9-30.7 55.7-14.9 21.1-39.9 39.4-60.5 58.1-11.4 10.8-25.7 21-31.9 35.8C1535.1 1061.4 1534.7 1061.7 1534.2 1062zM1633.8 994.8c27.6-20.7 59.3-40 89.5-52.1 45.5-17.9 93.3-29.7 140.4-22.4 8.7 1.3 18.3 3.4 24.5 7.1-25.3 17.1-52.1 31.9-79.5 45.4-25.8 12.6-50 23.6-78.2 31.6-26.1 7.8-53 11.9-79.6 17.3-25.7 5.8-51.6 11.8-76.2 21.5C1593.8 1025 1613 1010.1 1633.8 994.8zM1879.4 948c-15.4 22.7-33.4 42.1-56.5 56.7-38.6 26.4-85.7 39.3-130.6 46-38 5.6-76.5 4.4-114.7 6.3-10.9.5-22 1.7-32.8 4.1 7.3-3.7 14.2-6.4 22.6-10 27.8-11.9 57.4-18.9 86.9-25.3 36.6-7 73.6-13.4 108.4-27.4 37.2-15 73.1-33.2 107.3-54 6.3-3.9 12.6-7.9 18.7-12.1C1886 937.8 1882.8 942.9 1879.4 948z"></path><path d="M1631 1398.9c-24.6-12.6-52.6-15-78.9-22.3-20.6-6.1-39.6-12.5-58.3-24.6-3-1.9-5.6-4.9-9.4-8-2.2-.9-4.5 2.2-2.7 4 13.3 13.8 32 20.2 49.4 27 29.3 11.2 63.3 13.4 90.5 24.9 15.1 6 29.2 19.3 30.4 35.1.2 10.7-13.6 24.2-27.6 30.3-58.9 27.6-127.5 36.3-192.7 46.4-8.7 1.7-18.6 1.9-26.7 5.7-4.7 5.5 5.1 7.8 8.8 9.6 5 2.4 12.3 4 15.6 6.8-5.3 3.2-31.3 5.5-44.8 5.9-29.3 1.4-58.6 1.4-87.9 2.5-19.5.9-39.1.9-58.6-.5-1.1 0-2.2-.4-3.2.1-1.1.4-1.8 1.7-1.5 2.8.5 2.1 2.9 1.6 4.5 1.8 3.6.2 7.2.4 10.8.6 15.9.9 31.9.6 47.8-.1 40.4-1.7 81.1-.3 121.3-5.3 5.2-.8 22.9-3.6 14.9-11.7-6-3.9-13.3-5.3-19.7-8.5-.8-.4-1.7-.8-2.5-1.2 8.8-2.2 16.3-3 26.1-4.6 64.5-10 130.8-18.4 190.4-46.5 8.6-4 16.4-9.7 22.3-17.3 3.5-4.3 6.8-9.2 7.4-14.8C1657.5 1420.7 1644.5 1406.5 1631 1398.9zM1168.7 616.7c.8 1.8 1.2 5.2 3.8 4.8 1.6-.2 2.7-2.1 1.9-3.6-8.9-20.4-11.9-50.5 9.1-60.4 3.6-1.5 10.6-3.5 16.4-3.3 4.7 0 15 2.1 19.2 4 11.5 7.4 12.4 1.4 11.7-9.3-2.3-38 43.6-62.1 79.6-61.8 35.4 0 67.3 17.1 90.6 45.9 7.6 10 15.8 23.4 22.6 36 2.6 4.1 1.9 6.9 5.2 10.8 2.4 2 5.4-.1 7.7-1.4 3.6-1.9 4.6-2.3 8.7-3.7 12.2-3.9 23.5-4.1 36.6-.3 4.8 1.2 10.9 4 14.1 6.8 1.1 1.1 2.8 2.7 2.7 3 .3.5.8.9 1.4 1 1.5.3 3-.9 3.1-2.4-.3-2.6-3.5-4.9-5.4-6.4-3.8-2.9-8.3-4.7-12.9-6.1-19.9-6.8-41.4-1.6-53 5.6 0 0 0 0 0 0 0-.1-.6-1.1-.7-1.5.7 1.4-.7-1.6-.8-2.1-4-9.9-10.1-18.9-15.6-28-19-31-50.9-56.1-87.7-60.5-39.5-6.9-93.3 13.4-100.9 56.8-.8 5.1.5 11.8 0 15.9-.9-.5-1.9-1.2-3.6-2-36.1-15-66.1 4.6-58.8 44.9C1164.9 605.4 1166.6 611.2 1168.7 616.7zM1096.4 641.5c10 2.7 18.7 7.9 26.6 15 3 2.6 5.7 5.5 8.3 8.4.8.8 1.5 2 2.8 1.9 1.9 0 3.3-2.6 1.9-4.1-10-11.7-22.6-21.7-37.6-25.7-2.1-.6-4.3-1.2-6.4-1.8-.9-.2-2 .2-2.5 1C1086.6 640.6 1093.9 640.4 1096.4 641.5zM1211.8 659.9c-7.1.9-14.1 2.9-20.8 5.5-2.4.9-4.8 2-7.2 3.2-.6.3-1 .9-1.2 1.5-.7 2 1.6 3.6 3.3 2.5 8.4-4 19.6-7.7 29.8-8.3 1.9 0 3.3-2.6 1.9-4.1C1216 658.9 1213.7 659.9 1211.8 659.9z"></path></g><g><path d="M1424 1048.7c-2.9.1-3.5 4.8-.2 4.7C1426.7 1053.4 1427.3 1048.7 1424 1048.7zM1437 1096.2c-2.9.1-3.5 4.8-.2 4.7C1439.6 1100.8 1440.2 1096.2 1437 1096.2zM1412.2 1074.6c-2.9.1-3.5 4.8-.2 4.7C1414.8 1079.3 1415.4 1074.6 1412.2 1074.6zM567.5 988.3c-2.9.1-3.5 4.8-.2 4.7C570.1 992.9 570.7 988.3 567.5 988.3zM538.2 1015.4c-2.9.1-3.5 4.8-.2 4.7C540.8 1020.1 541.4 1015.4 538.2 1015.4zM569.6 1017.6c-2.9.1-3.5 4.8-.2 4.7C572.3 1022.2 572.9 1017.5 569.6 1017.6zM1434 1016.8c-1.4 0-1.7 2.4-.1 2.4C1435.3 1019.2 1435.6 1016.8 1434 1016.8zM1446.7 1055.7c-1.4 0-1.7 2.4-.1 2.3C1448 1058 1448.3 1055.6 1446.7 1055.7zM1394.2 1043c-1.4 0-1.7 2.4-.1 2.4C1395.5 1045.4 1395.8 1043 1394.2 1043zM1416.8 1112.7c-1.4 0-1.7 2.4-.1 2.4C1418.1 1115 1418.4 1112.6 1416.8 1112.7zM1450.3 1114.5c-1.4 0-1.7 2.4-.1 2.4C1451.6 1116.8 1451.9 1114.4 1450.3 1114.5zM548.2 1001.2c-1.4 0-1.7 2.4-.1 2.4C549.5 1003.5 549.8 1001.1 548.2 1001.2zM520.1 1045.2c-1.4 0-1.7 2.4-.1 2.4C521.4 1047.5 521.7 1045.1 520.1 1045.2zM592.2 999.3c-1.4 0-1.7 2.4-.1 2.4C593.5 1001.7 593.8 999.3 592.2 999.3zM550.1 1045.2c-1.4 0-1.7 2.4-.1 2.4C551.4 1047.5 551.7 1045.1 550.1 1045.2zM585.6 977.8c-1.4 0-1.7 2.4-.1 2.4C586.9 980.1 587.2 977.7 585.6 977.8z"></path><path fill="#fff" d="M563.1 1283.6c-2.9.1-3.5 4.8-.2 4.7C565.8 1288.3 566.4 1283.6 563.1 1283.6zM604.8 1304.5c-2.9.1-3.5 4.8-.2 4.7C607.5 1309.1 608.1 1304.4 604.8 1304.5zM591.4 1275c-2.9.1-3.5 4.8-.2 4.7C594 1279.7 594.6 1275 591.4 1275zM568.1 1261.3c-1.4 0-1.7 2.4-.1 2.3C569.4 1263.6 569.7 1261.3 568.1 1261.3zM578.6 1311.1c-1.4 0-1.7 2.4-.1 2.3C579.9 1313.5 580.2 1311.1 578.6 1311.1zM610 1329.5c-1.4 0-1.7 2.4-.1 2.4C611.3 1331.8 611.6 1329.4 610 1329.5zM605.7 1283.2c-1.4 0-1.7 2.4-.1 2.4C607 1285.5 607.3 1283.1 605.7 1283.2zM546.2 1232.5c-1.4 0-1.7 2.4-.1 2.3C547.5 1234.8 547.8 1232.4 546.2 1232.5zM731.4 1313.5c-.9-2.7-1.9-5.4-3-8.1-2.7-6.3-5.2-13-10-18.1-1-1.1-3.5-2.6-3.9-2.8-1.4-1.2-4-6.7-4.4-8.3-3.9-10.6-8-21.2-12.6-31.5-2-3.5-8.5-22.3-13.9-16.8-.2.3-.4.4-.5.4-.1 0-.1 0-.2.1 0 0-.1 0-.2 0-.1 0-.2 0-.2 0-.1 0-.2 0-.4-.1-2-.5-3.3-1.1-4.3-3.6-2.7-5.9-4-10.9-6.2-17.2-5-14-8.8-28.5-15.7-41.7-1.6-2.8-3.6-5.5-6.4-7.2-3.3-2.1-7.3-2.6-11-3.7-4-.9-8-2.2-12.1-2.8-1.1.1-1.6 2-.3 2.3 8.2 2.5 18.7 3.1 24.1 7.9 3.9 3.9 6.2 10 8.6 15.8 3.7 9.5 7.3 20.8 10.9 31.4 1.7 5 3.2 10.1 5.3 15 1.2 3.2 3 5.6 6.5 6.2 1.6.4 2.9-.4 3.9-1.5.1 0 .1 0 .2-.1.9.3 3.7 4.1 5.7 8.3 5.7 11.5 10.4 23.5 15 35.4 2 4.3 3 11.6 8.3 14.5 6.7 4.5 10.9 17.4 14 25.1.7 1.2.5 3.7 1.9 3.9C732.2 1316.4 731.9 1314.7 731.4 1313.5zM692.1 1264c-.4-1.5-2.6-.7-2.3.7 1.1 6.4 2.6 12.8 4 19.2.6 1.7.6 4.6 1.7 5.8.9.5 2-.5 1.8-1.4C695.4 1280.2 693.5 1272.1 692.1 1264zM713 1306.6c-.5-2.2-1.1-4.3-1.4-6.5-.4-1.5-2.6-.7-2.3.7.4 2.5 1 4.9 1.6 7.3.1.4.5.8.9.8C713 1308.9 713.4 1307.5 713 1306.6zM1100.3 779.2c-.3-.6-1.1-.7-1.6-.4-2.4 1.3-4.8 2.7-7.1 4-6.7 3.7-12.2 6.5-19.6 8.6-5.2 1.1-10.5 3-13.4 0-1.2-.9-1.3-2.8-3.4-3.2-2 .4-3 2.6-4.6 3.8-2.1 1.8-6.8 4.9-8 4.6-2.5-.4-3.9-4.5-4.9-8.4-1.6-6.1-2.9-12.3-3.4-18.5-.3-2.7-.1-8.8.1-12.6-.4-1.2-2.3-.6-2.3.6-1 9.6.2 19.3 2.5 28.6 1.3 4.5 2.2 12.7 8.3 12.7 4.4-.9 9.5-5.7 11.8-8.1 1.1 1.4 2.4 3.6 4.8 4.2 3.6.9 7.3-.2 10.8-.9 7.8-1.8 15-5.4 22-9.3 2.5-1.5 5.2-2.7 7.5-4.3C1100.4 780.2 1100.5 779.6 1100.3 779.2z"></path><path fill="#fff" d="M1047.1,783.6c-0.8-0.9-0.9-1.1-1.2-1.9c-0.9-3.7-0.7-6.5-0.5-10.6c0.1-1.6-2.3-1.3-2.4,0.1
			c-0.2,3.7-0.3,7.4,0.5,11c0.3,1.5,1.8,4,3.4,4.3c0.8,0,1.4-0.8,1.2-1.5C1048.1,784.3,1047.5,784,1047.1,783.6z"></path><g><path fill="#fff" d="M855.2 798.9C855.2 798.9 855.2 798.9 855.2 798.9 855.2 798.9 855.2 798.9 855.2 798.9 855.2 798.9 855.2 798.9 855.2 798.9zM864.6 806.9c-1.5-2.8-3-5.6-5.1-8-1-1.1-2.2-2.2-3.8-2.3-1.8-.2-3.2 1.9-3.8 2.2-.2.1-.4.1-.6.2-.2 0-.7 0-.9 0-1.2-.1-2.8-.4-3.1-.6-1.1-.5-2.3-2-3.5-3.6-9.1-11.4-18.1-23-28.6-33.2-8.6-7.9-18.4-14.7-28.8-20-1.3-.5-2.5-1.8-3.9-1.6-.9.3-1.3 1.7-.4 2.2 11.6 5.8 21.6 12.4 30.9 20.8 11.6 11.1 21 24.2 31.4 36.4 1.9 1.9 5.6 2.4 8.1 1.6.8-.3 1.3-.8 1.9-1.4.1-.1.3-.4.4-.4.2-.2.5-.3.1-.1.1-.1.2-.1.3-.1 0 0-.1 0-.2 0 .1 0 .1 0 .2 0 0 0 0 0 0 0 .1 0 .1 0 .1 0 3.8 1.1 6.9 9.1 9.8 14.3.9 1.4 2.1 6.2 4 3.1C868.4 813.1 866 810 864.6 806.9z"></path></g><path fill="#fff" d="M858.7 816.6c-.7-1.3-2.8 0-2.1 1.3 1.9 4.3 3.7 8.6 5.5 13 .5.9 1.9.5 2.2-.4C863.1 825.7 860.4 821.2 858.7 816.6zM855.9 774.6c-6.3-5.3-13.5-9.3-21-12.7-3.2-1.2-6.8-3.6-10-4.2-.9.2-1.3 1.7-.4 2.2 10.7 4.6 21.7 9.7 30 16.7C855.6 777.1 856.8 775.5 855.9 774.6zM447.6 751.4c-1 2.4-1.4 5-2.5 6.6-6 10.2-21.5-5.2-27.3-13.5-8.6-10.6-11.4-22.7-14-35.9-2.4-11.1-4.2-22.3-8.1-33-3.9-10.8-9.3-20.9-14.2-31.2-2-3.8-3.3-7.9-5.2-11.7-.9-.7-2.4.5-1.8 1.6 4.8 12.8 11.9 24.5 17 37.2 3.8 8.9 6.1 19.2 8.2 29.4 2.3 10.7 4 21.8 8.3 32 2.9 6.7 7.3 12.7 12 18.3 5.6 6.3 18.3 18.3 26.1 9.3C447.2 759.7 452.1 749 447.6 751.4z"></path><path fill="#fff" d="M440.6 743.5c-1.2.5-1.3.4-2.1.5-2 .1-5.5-1-6.9-2.2-1.1-1-2.1-2.2-3-3.3-.2-.2-.5-.3-.8-.3-1 0-1.7 1.3-.9 2 2.4 3.2 5.4 5.5 9.5 6 1.7.2 4.2.3 5.5-1.1C442.4 744.3 441.6 743.1 440.6 743.5zM443.1 728.7c-.7-1.5-2.3 0-2.3 0-1.2.8-1.2.8-2.3 1.2-.9.3-1.8 0-3.5-.1-1.2.1-1.5 2-.3 2.3 2.3.6 4.9.2 6.9-1.2C442.3 730.4 443.5 729.8 443.1 728.7zM883.8 1351.1c-2.6-.7-5.3-1.3-7.9-2-2.4-.2-15.7-5-14.2.3 0 .1 0 .1-.1.1 0 0 0 0 0 0-.1.1-.3.3-.5.5-.5.2-.4.2-1.7.1-7.9-1.6-15.7-3.5-23.5-5.1-8.8-1.8-17.8-3-26.5-5.7-3.1-.9-6.1-2.2-9.2-2.9-4-.3-8.1-.3-12.1.3-2.3.5-4.8 1-6.7 2.4-.8.9.3 2.4 1.4 1.6 3.7-2.2 11.9-2.4 16.4-2 4.3 1 8.4 2.9 12.7 3.9 13.9 3.3 28.1 5.4 42 8.9 3 .4 7.1 2.6 9.3-.5.4-.5.7-1.1.7-1.7.4 0 .7.1 1.6.2 5.9 1 11.6 2.5 17.4 4 .9.3 2.2.5 2.5-.6C885.9 1351.6 884.7 1351.3 883.8 1351.1zM876.2 1358.3c-.9-.4-3.2-1.5-4-1-.9.5-.9 1.9.2 2.1 1 .2 2 .9 3 .9C876.3 1360.2 876.9 1359 876.2 1358.3zM1663 835.4c-.4-1.2-2.3-.6-2.3.6.2 20.7-6.2 40-14.2 59.4-18.1 44.1-51.6 80.6-82.8 117.3-.6.9-1.5 1.8-1.4 2.9.3 1.2 1.9.9 2.7.3 7.9-5.7 14-13.6 21-20.4 5.1-5.3 10.2-10.5 15.4-15.7.8-1 3.6-2.5 1.9-3.9-.5-.2-1.1-.1-1.4.3-2.4 2.4-4.8 4.7-7.1 7.1-7.1 7.2-14 14.5-21 21.7-1 1-2 2-3 3 33.8-40 68.3-78.3 85.1-131 2.6-8.5 4.9-17.1 6.2-25.9C1662.6 846 1663.2 840.7 1663 835.4zM1833.1 980.8c-14 8.9-28 14.5-43.4 20.5-30 11.8-61.2 19.8-92.6 26.7-15.8 3.6-31.7 6.9-47.6 10.3-3.9.9-7.8 1.7-11.5 3.1-1.6.6-3.9 1.4-4 3.4.2 1.5 1.7 2.3 3 2.6 2.2.7 4.6 1 6.9 1.4 5.2.7 10.4 1.3 15.6 1.8.7 0 1.6.3 2.3 0 .9-.5.9-1.9-.2-2.1-7.7-.8-20.9-1.8-25.1-3.9 7-3.7 36.9-8.6 52.5-12.4 34.3-7.5 68.5-15.7 101.2-28.6 12.8-5 25.6-10 37.5-16.8 2.3-1.6 5.3-2.6 7.2-4.7C1835.1 981.1 1834 980.2 1833.1 980.8zM1750.1 1130.2c-49.8 16.1-103.2 4.6-153-9.7-3.5-.9-6.9-1-6.6 3.8.1 1.2.4 4.4 2.1 4.1 2.2-.7.4-2.4.4-3.4-.2-.8 0-1.8 0-2.2 0-.1.1-.3.1-.4.5-.1 1.2 0 2.5.2 41.2 11.6 84.2 21.9 127.2 16 9.5-1.1 18.8-3.2 27.9-6.2.5-.1.8-.6.9-1C1751.6 1130.6 1750.8 1129.9 1750.1 1130.2zM1623.3 1233.7c-24.9-9.2-50.5-23.9-76.1-34.2-3.2-1-6.7-.9-10-.9-1.3.2-3-.2-4.1.6-.7.7-.3 2 .7 2 9.4-1.4 16.1 1.5 24.6 5.8 20.1 9.3 39.9 19.3 60.5 27.7 1.4.3 3.1 1.6 4.6 1.1C1624.3 1235.4 1624.3 1233.9 1623.3 1233.7zM1566.8 1300c-16.1-10.1-33.2-18.5-49.2-28.7-4.7-2.5-8.8-6.4-13.9-8-6.2-.4-4.1 7.7-3.2 11.4.3.8.2 1.9 1 2.3.7.4 1.5-.1 1.8-.8.2-.6-.2-1.3-.3-1.9-1.2-4.3-1.4-8.7-.6-8.6.9-.2.8-.2 2.3.4 6.5 3.8 12.8 8.1 19.3 11.9 10.8 6.6 22.2 12.5 33.1 18.9 2.8 1.7 5.6 3.4 8.5 5.2.3.1.6.2.9.1C1567.3 1301.9 1567.7 1300.5 1566.8 1300zM1545.8 1007.4c-.9-.6-.7-.2-1.3-.6-7.3-3.1-5.4-13.5-6.5-21.5-1.1-16.3-2.1-32.6-2.2-49-.2-10.7-.3-21.5-.4-32.2-.2-2.5.4-5.3-.4-7.6-.7-.7-2 0-2.1.9.3 26.9.4 53.9 2.3 80.7.4 6.2.8 12.5 1.3 18.7.4 4.5 1.6 9.7 6.2 11.8.9.4 1.9 1.1 2.8.6C1546.1 1008.9 1546.3 1007.9 1545.8 1007.4zM1483 1154c-2.2-.7-1.7-.3-2.5-3.1-1.3-6.3-2.7-12.7-4.6-18.9-.6-1.9-1.3-3.8-2-5.7-.1-.3-.4-.5-.7-.5-1-.2-1.9.9-1.4 1.8 2.6 6.6 4.5 15.2 6.1 23.1.4 1.5.5 3.2 1.5 4.4.8.8 2 1 3 1.3C1484.7 1157.1 1485.4 1154 1483 1154zM1459.8 1211.7c-1-2.9-2-5.8-3-8.7-.7-1.4-1-4.4-2.3-5.1-1-.2-1.9.9-1.4 1.8 1 2.8 2.3 6.6 3.6 10.2.6 1.2.6 4.1 2.6 3.2C1459.6 1212.8 1459.9 1212.2 1459.8 1211.7z"></path><path d="M725.7 565.1c-6.6-18.9-19.3-35-31.4-50.6-7.1-8.8-4-7.4 6.3-4.7 3.5.7 8.4 3.5 11.1-.3 1.1-3.6-1.8-7.2-3.9-9.9-5.6-7.1-13.3-11.9-21.1-16.2-2.4-1.2-4.7-2.7-7.3-3.7-.5-.1-1 .2-1.2.6-.9 1.7 1.7 2 2.7 2.8 3.1 1.6 6.2 3.3 9.2 5.1 8 4.8 18.5 12.7 19.4 20.4 0 0 0 0 0 0-.6.4-.3.3-1.3.5-1.2.4-6.8-1.9-9.9-2.4-7.9-2.7-14.4-1.1-7.4 7.6 21.1 26.4 45.9 58.8 31.5 92.2-2.7 5.9-7 10.8-10.9 15.9-5.3 6.8-10.4 13.7-15.2 20.9-11 16.8-22.3 34.2-27.8 53.7-2.1 8-1.6 16.4-2.4 24.6 0 6.1-3.2 13.8-5.4 12.9-4.4-3-10.3-8.4-15.4-12.2-1.1-.5-2.2 1.1-1.4 2 4.6 3.8 9.4 7.5 14 11.3.8.7 1.9 1.3 3 1.3 2.3-.1 3.7-2.2 4.7-4 2.5-4.4 2.6-9.5 3-14.4.7-8.8.4-16.6 3.1-24.6 10.3-29.8 31.2-56.1 50.3-81.9C730.6 598.1 730.5 580.4 725.7 565.1zM670.9 491.1c-5-2.3-10.1-4.7-15.5-6-.7-.2-1.7-.5-2.2.3-.5.6-.3 1.7.5 1.8 6.3 1.4 11.4 4 17.5 6.8.9.5 2-.5 1.8-1.4C672.8 491.6 671.6 491.5 670.9 491.1zM369.8 485.8c-10.3 5.7-17.2 15.8-23.1 25.8-14.5 24.2-17.9 53.7-14 81.3 2.1 10.7 3.9 21.6 7.7 31.9 1.6 3.4 4 5.6 7.4 2.7.6-.3 1.6-1.6 2.3-2.5.1.4.2.9.2 1.2.9 12.6.6 27.9 4.1 41.3 1.4 6.3 3.4 12.5 5.5 18.6.6 1 .5 3.1 2 3 2.5-.7-.3-4.2-.6-6.1-1.5-4.5-3-8.9-4.1-13.5-3.6-13.7-3.9-26.4-4.4-40.4-.1-4.4-1.1-11.5-5.3-4.3-.2.2-.4.5-.5.6-.4.4-.6.4-1.5 1.1-.2.2-.5.2-.6.2-.8-.1-1.9-1.8-2.9-3.9-3.1-9.9-5.9-22.9-7.6-34.2-1.6-12.6-1.1-26.3 1-39.6 3.3-21 14.9-44.6 30.7-58 1.5-1.1 3-2 4.6-2.9.4-.3.7-.7.6-1.2C371.5 485.7 370.5 485.3 369.8 485.8zM343.5 656.9c-.5 7-.3 14-.2 20.9.3 1.2-.5 3.4.8 4 2.4.4 1.5-2.7 1.6-4.2-.1-6.7-.3-13.4.1-20.1C346.5 655.6 343.9 654.9 343.5 656.9zM327.8 649c-4.1 6.8-8.5 13.8-11.5 21.1.8 1.8 2.3.3 2.7-.9 3.3-6.3 6.6-12.5 10.4-18.5C330.8 649.2 329.2 647.3 327.8 649zM543.8 751.6c-.1-.6 0-1.3-.6-1.7-.9-.5-2 .5-1.8 1.4 1 9.3.8 19.9-1.7 29.1-.5 1.5 1.9 1.9 2.2.5 1.6-5.7 2.2-11.6 2.3-17.5C544.4 759.5 544.2 755.5 543.8 751.6zM562.9 754.7c-4.2-3.9-9.3-6.9-14.4-9.5-1.2-.2-2 1.6-.8 2.2 6 3.3 10.7 6.2 15.4 10.7.9.4 1.8-.6 1.6-1.5C564.4 755.9 563.5 755.4 562.9 754.7zM567.6 736.3c-2.4-.8-4.9-1.5-7.4-1.9-1.3-.1-2.8-.7-4-.3-.9.5-.9 1.9.2 2.1 3.6.3 9.1 1.7 11.4 2.6.8.4 1.8.6 2.2-.3C570.8 737 568.6 736.7 567.6 736.3zM925.4 858.4c2.8-11.9 4.3-24 4.7-36.2.8-26.8-4.3-53.7-14.8-78.4-1.5-3-3.2-8-5.6-9.9-1-.2-1.9.9-1.4 1.8 6.8 11.5 10.2 23.2 13.8 36.1 5.5 22.2 7 43.9 4.4 66.8-1.1 9.8-3.1 18.4-5.5 28.3-1.2 4.8-3.7 10.3-.5 14.7 1.4.9 2.7.5 3.7 1.1 3.6 1.9 3.3 8.3 2.3 13.8-.9 4.8-2.2 11.1-4.1 16.6-.2.8-1 1.9-.1 2.5 2.8 2.3 5.1-13.3 5.8-15.3 1.1-6.4 4.1-17.8-4.3-20.3-2.3-.5-1.4.2-2.1-1.5-.9-2.8-.4-3.9.4-6.8C923.4 867.2 924.4 862.8 925.4 858.4zM910.3 893.3c-1 4.3-2.6 8.5-4.1 12.8-.2.8-.7 1.5-.7 2.3 0 .8 1 1.2 1.7.8 2.4-4.3 3.9-10.5 5.4-15.3C913 892.2 910.7 891.9 910.3 893.3zM935.9 869.3c-1-1-2.8.7-1.7 1.7 1.7 1.3 3.2 2.9 4.9 4.1.3.1.6.1.9 0C942.7 873.6 936.9 870.7 935.9 869.3zM1296.8 841.2c-4.5 1.4-8.8 3-13.4 4.1-1 .4-3.6-.1-4-.7-2.4-2.3-4.4-5-6.9-7.2-3.9-3.7-8.2-7.1-12.8-9.9-1.6-.9-4.6-2-4.5-2.2 0-.1 0-.1-.1-.1 0 0 0 0 0-.1 0-.2 0-.3 0-.3.6-2.3 1.8-4.4 2.6-6.7 1.6-4.4 2.9-8.9 4-13.5 3.5-20.6-.5-42.1-10.2-60.6-3.6-6.9-8.1-13.4-13.4-19.1-1.7-1.5-4-5-5.8-5.6-1 0-1.7 1.3-.9 2.1 22.5 21.6 33.9 55.3 27.5 85.2-1.1 4.1-2.2 8.2-3.8 12.1-.8 2.6-3.9 6.5-1.1 8.7 7.4 3.2 12.7 7.6 18.5 13.3 2.5 2.2 4 5.6 7.3 6.6 5.4 1.1 10.7-2.1 15.8-3.4 1.6-.5 3.3-1 5-1.4.5-.1.9-.6.9-1C1301.4 839.2 1298.1 841.1 1296.8 841.2zM1303.2 874.1c-1.1-1.1-3.1-.7-4.6-1.1-6-.8-12-1-18-1.1-2.4-.1-4.4-.2-4.9-1.4-5.4-9-9.8-18.5-15.1-27.5-.4-.5-.5-1.3-1.2-1.4-.9-.2-1.9.9-1.4 1.8 5 8.5 9.4 17.4 14.2 26 .8 1.4 1.5 3 2.9 4 2.7 1.3 6 .8 9 1 6 .1 10.8.5 17 1.5C1302.2 876.2 1303.8 875.4 1303.2 874.1zM1302.5 857.7c-4-2-11.7-2.2-16.3-3.2-1.4-.3-2.2 1.9-.7 2.3 4.5.7 9 1.2 13.4 2.2.9.1 1.8.5 2.7.5C1302.4 859.4 1302.9 858.4 1302.5 857.7zM1358.6 1270.2c-.5-.4-1.2-.4-1.7.1-3 2.8-6.1 5.6-9.1 8.5-10.1 9.3-20.3 18.7-30.5 27.9-10.9 9.5-22.7 20.1-33.6 29 .6-.9 1.2-1.8 1.8-2.6 1.5-1.9 3.6-6.3-.3-6.6-3.5.8-6.6 2.6-9.9 3.7-7.2 2.8-14.4 5.7-21.8 8.2-32.2 11.3-65.6 18.6-99 25.4-13.2 2.6-26.1 5-38.6 7.2-6.1.9-13.7 2.8-18.9 2.5-1.5-.2-2.4-1.6-4.4-3.2-5-4.1-10.3-7.8-15.8-11.3-5.6-3.6-13.2-7.5-19.7-3.8-3.6 2.5-6.4 6-9.3 9.2-2.5 2.9-5.2 5.8-7.5 8.9-.4 1.2.8 2.1 1.8 1.2 4.4-5.6 10.6-12.7 15-16.6 5.3-4 12.5-.6 18.9 3.6 5 3.3 9.3 6.2 13.5 9.6 2.5 1.8 4.5 4.9 7.9 4.9 20.7-2.1 41.2-7 61.7-10.7 33.7-6.9 67.4-14.4 99.7-26.3 8.6-2.9 18.5-7.6 26.1-10 0 0 0 0 0 0 0 0 0 .1 0 0 0 0 0 0 0 0l0 0c0 0 0 0 0 0-.1.4-.4.8-.1.3-1.4 3.1-5.3 7.8-6.5 9.5-.7 1.1-2.2 1.9-2.3 3.3.2 1.7 2.2.7 3-.1 16.3-13.1 31.9-27 47.5-41 10-9.1 20-18.3 29.9-27.6C1357.6 1272.6 1359.6 1271.7 1358.6 1270.2zM1355.3 1290.6c-6.7 5.2-13.3 10.4-20.4 15-2.8 2.1-6.4 3.6-8.7 6.1-.3 1 .8 1.8 1.6 1.2 10-6.6 20.2-13.2 29.1-21.1C1357.3 1290.9 1356.2 1290 1355.3 1290.6z"></path><path d="M1337.1 1253.5c-9.2 15.6-19.6 28.4-30.9 42.2-.8 1.1-2.1 2-2.5 3.4-.1 1 1.3 1.5 2 .7 11.8-14.8 24.9-29.3 33.5-46.1C1339.1 1252.7 1337.6 1252.7 1337.1 1253.5zM488.8 1227.9c-2.6-1.2-5-2.7-7.5-4.1-1.4-.9-4.3-1.7-4.6.7.1 1.3.5 2.2.4 2.8-.1 2.1-.9 4.9-1.5 6.2-.3.6-.9 1.7-.8 1.5-.1.1-.2.2-.3.3 0 0 0 0 0 0 0 0-.1 0-.1 0-1.6.1-6-3.1-8.7-5.1-6.1-4.1-12.2-9.2-15.7-15.8-8.7-13.8-3.2-32.6-1-47.8.9-5 2-10 2.9-15-.1-1.3-2-1.2-2.3 0-2.5 12.4-5 24.8-6.3 37.4-1.9 11.7 1.1 23.8 8.9 32.9 3.8 4.7 8.9 7.9 13.8 11.4 2.8 1.7 6.1 5.2 9.6 3.9 1.9-1.4 2.6-3.8 3.2-6 .5-1.9.8-3.9.5-5.8 2.5 1 7.1 4.1 10.2 5.3.7.5 1.7.6 2.2-.2C492.6 1228.9 489.8 1228.7 488.8 1227.9z"></path><path d="M465.8 1213.2c-2.3-1.9-4.5-3.8-6.7-5.8-.8-.5-1.3-1.6-2.3-1.7-1 0-1.7 1.3-.9 2 2.6 2.5 5.4 4.9 8.1 7.2.6.6 1.5.3 1.9-.3C466.2 1214.2 466.1 1213.6 465.8 1213.2zM496 1241.9c-2.2-.6-4.4-1.6-6.6-1.9-1.2.1-1.5 2-.3 2.3 2.1.6 4.1 1.2 6.2 1.9.7.2 1.5-.5 1.5-1.2C496.9 1242.5 496.5 1242 496 1241.9zM1076 1349.7c-2.9-2.1-6.5-3.3-9.9-4.6-2.4-.7-4.9-1.3-7.3-.7-1.8.4-3.2 1.6-4.7 2.7-2.8 2.3-6.2 4-8.6 6.7-.3 1 .8 1.8 1.6 1.2 4-2.7 8.5-7 12.1-8.3 2.4-.6 6.7.8 10 2.2 1.9.7 3.7 1.9 5.5 2.6C1075.7 1351.6 1076.4 1350.5 1076 1349.7zM1469.8 1423.6c-.9-2.4-1.8-4.7-2.7-7.1-2.9-7.9-6.3-17.9-9.2-26.9-2.6-6-8.9-36.8-16-17.7-1.7 3.1-3.9 6-5.6 5.9-2-.6-4.2-8.6-4.7-14.2-2.8-19.8-4.1-38.3-4.5-58.4-.2-8.5 0-17.1.6-25.6-.1-2.5 1.1-6.9.3-8.8-.7-.7-2 0-2.1.9-2.5 27.9-1.2 56 2.2 83.8 1 5.6 2.1 32.7 12.4 22.1 2.9-2.6 5.7-10.3 6-9.6 1.6.8 5.2 9.9 6.6 14.7 3 9.5 6.1 18.9 9.5 28.3 1.6 4.6 3.4 9.2 5.1 13.8.3.6 1.1.7 1.6.4C1469.8 1424.9 1470.1 1424.2 1469.8 1423.6z"></path><path d="M1451.2 1407.5c-.5-2.3-.9-4.5-1.4-6.8-.1-.3-.3-.6-.5-.7-.9-.5-2 .5-1.8 1.4 2.2 10.3 3.9 21.3 8.2 30.8.9.5 2-.5 1.8-1.4C1454.8 1423.3 1453 1415.4 1451.2 1407.5zM1460.7 952.6c-1.6-3.3-3.8-8-8.1-7.9-1.8.3-2.4 1-3.5 1.3-.9.3-3.1.5-4 .2-.9-.2-2.2-2.2-3.7-4.2-11.8-15.6-23.7-31.9-40.2-43-2.2-1.2-5.8-4-8-4.2-.9.3-1.3 1.7-.4 2.2 20.8 10.7 35.5 31.8 49.1 49.9 2 2.5 5.9 1.9 8.6.9 1.7-.8 2.2-1 2.8-.7 3.3 1.5 5.1 6.5 7 10.9.7 1.1.3 2.6 1.7 3C1465.4 961 1461.1 954.2 1460.7 952.6zM1454.2 964.8c.1-2.1-2.6-2-2.4 0 .6 3.4 1.4 6.8 2.2 10.2.1.6.8 1 1.4.8.6-.2 1-.8.9-1.5C1455.5 971.1 1454.8 968 1454.2 964.8zM975.4 1049c-.4-3.6.2-9.6-4.3-10.7-1.3-.1-1.4-.3-1.7-.5-1.2-1-2.2-1.8-2.6-2.6-2.2-9.1-3.5-21.6-6-31.7-2.1-8.8-4.1-17.9-7.8-26.1-.9-.7-2.4.6-1.8 1.6 5 12.9 8.3 28.6 10.8 43.2.8 4.3 1.2 8.7 2.2 12.9.3 1.2.9 2.3 1.8 3.1 1 .8 1.9 1.9 3.2 2.3 1 .2 1.7.2 1.9.4 2.2 1.8 1.9 9.2 2.1 14.5.1.4.6.7 1 .7 1.2-.1 1.3-1.3 1.3-2.3C975.6 1052.2 975.5 1050.6 975.4 1049zM973.8 1012.1c-.7-1-2.4 0-2.1 1.1.4 1.7.7 3.4 1.4 5 .6.8 1.9.3 2.1-.5C975.1 1016.2 974.2 1013.6 973.8 1012.1zM634 841.2c-6.4 7.2-9.9 16.2-12.7 25.3-3.4 9.5-5.2 19.6-3.9 29.7 1.7 7.6 1.1 8.3-5.7 12.3-18.3 9.5-37.1 18.3-54.4 29.7-28.4 19-54.5 41.8-76.3 68.3-6.8 8-13.2 16.3-19.5 24.6-2.3 3.4-13.3 15.8-9.2 18.5 4.1.5 8.1-1.8 11.6-3.6.1 0 .6-.3.9-.5.3-.1.7-.2.2-.1.3 0 .3 0 0-.1.2 0 .2 0 .3 0 0 0 0 0 .1 0-2.4 10.6-9 23.1-12.8 34.4-1.3 3.4-2.5 6.8-3.6 10.2-.1.4 0 1 .4 1.2 2.3 1.5 3.1-5.3 3.9-6.6 3-8.3 6.3-16.4 9.5-24.6 1.7-5 4.6-9.8 5-15.2-.5-2.8-3.8-1.6-5.3-.5-1.9 1.1-2.7 1.5-4.5 2.1-1.6.5-3.3 1-4 1 0 0 0-.1 0-.1.6-1.8.7-1.9 1.5-3.5 13.7-20.2 28.7-38.4 45.8-56.3 19.6-19.7 40-36.5 63.5-51.2 16.7-10.8 35.3-18.2 52.3-28.4 2.3-1.5 3.9-4.1 3.8-6.9-.1-1.8-.8-3.6-1-5.4-.5-3.7-.5-8.2-.1-12.7.5-5.6 2.4-11.4 4.4-17.4 2.2-6.6 4.1-12 7.7-17.5 1.5-2.6 2.9-3.4 4.2-6C636 840.9 634.7 840.5 634 841.2z"></path><path d="M449.7 1063.4c-6.5 11.5-14.1 22.8-19.6 34.7.2 1 1.7 1 2.1.2 5.5-10.3 11.5-20.3 17.4-30.4.6-1.5 2.1-2.7 2.2-4.3C451.6 1062.5 450.2 1062.5 449.7 1063.4zM440.2 1055c-6.2 3.6-11.9 8-17.7 12.2-2.7 2-5.3 4-8 6.1-.2.2-.4.5-.4.8-.1 1.1 1.3 1.5 2 .7 5.3-4.2 13.4-10.1 20-14.6 1.5-1.3 4.9-2.6 5.8-4C442.2 1055.3 441 1054.5 440.2 1055zM1430.3 468.9c-5.3-5-10.2-10.6-16.1-14.9-2.2-1.8-6.1-2.5-7.3.7-.8 2.2-.3 4.7-.4 7 0 6.4.3 12.7-.2 19.1-.1 1.1-.2 1.2-.5 2.4 0 0 0 0 0 0-.2 0-.6.1-.7 0 .9.1-.8-.1-.9-.3-5.6-3.3-13.9-8.5-20.7-11.9-24.3-14-52.3-20.2-80.3-18.2-29.4 1.5-66 9.7-84.9 34-4.2 5.2-7.3 11.5-7.6 18.3.2 7.7 1.3 15.3 2.1 22.9.4 4 1.2 9.1.2 11.2 0 .1-.1.1-.1.2-.1.1-.1.2-.2.2 0 0-.1 0-.1 0-.5.1-.9.2-1.5 0-.9-.3-3.5-1.4-5.4-1.8-4.8-1.1-10-1.7-14.8-.2-2.1.7-4.6 1.2-5.7 2.8-.3 1 .8 1.8 1.6 1.2 5.3-3 11.3-3.2 17.8-1.6 3 .5 8.1 4.4 10.5-.2 1.2-3.6.4-7.5.1-11.2-.9-7.6-1.9-15.7-2.2-22.4 0-13.1 10.9-24.3 21.5-31.5 29.8-19.2 71.2-23.2 105.9-17.5 13.1 2.8 24.5 6.8 36.5 13 6.6 3.4 13.1 6.9 19.5 10.6 3.4 1.5 6.8 6 10.8 4.1 1.4-1.1 1.4-3.1 1.6-4.7.2-2.9.2-5.8.2-8.7.1-5.1-.2-10.1-.1-15.2.3-1.4-.1-1.1 1-1.8 5.5 1.3 17.5 15.5 25.3 22.3.9.4 1.9-.6 1.6-1.5C1435 473.1 1432.4 471.2 1430.3 468.9z"></path><path d="M1438.7 504.3c-3.9-4.1-7.2-9-12.2-11.8-3.3-1.4-5.3 2.1-5.3 4.9-.2.9-1.2 5.2-1.9 7.1-.8 2.8-2.3 2.8-5.4 1.7-7.7-4.4-14.7-9.9-22.6-13.9-5.5-2.9-11.4-5.3-17.2-7.6-1.1-.2-2 1.6-.8 2.2 9.3 3.7 18.5 7.8 26.8 13.4 3.9 2.4 7.6 5.2 11.5 7.5 2.2 1.2 5 2 7.4.8 2.3-1.5 2.7-4.7 3.5-7.1 1.3-5.1 1.1-7.4 2.6-7 5.3 3 9.9 9.7 14.7 14.8.5.6 1.5.3 1.9-.3C1442.4 507.3 1439.5 505.6 1438.7 504.3zM1426.3 534.9c-4.7-5.5-10.3-10.1-15.9-14.7-1-1-2.8.7-1.7 1.7 5.9 4.7 11.5 9.8 16.6 15.3C1426.7 537.7 1427.5 535.7 1426.3 534.9zM266.9 992.4c-.8-1.4-1.7-2.7-2.7-4-1.8-2.1-4-6-7.2-4.6-3 1.4-3.3 5.2-4.5 7.9-3 8.7-5.8 16.3-9.8 24-10 18.5-23.7 33.2-37.8 49-14.3 14.9-31.6 30.9-31.8 53.1-.1 5.6 1.1 11.3 3.3 16.4 1.6 3.6 3.7 7 6.2 10 .3.3.9.4 1.3.2.7-.3 1.1-1.3.5-1.9-10.1-11.6-11.5-30.5-4.1-43.7 6.4-13 16.5-22.1 26.5-32.8 14.1-15.7 28.9-31.6 38.7-50.5 4.1-8.1 7.1-16.6 10.1-25.2.7-2.3 1.4-4 2.2-4.4.1 0 .3-.1.4-.1.1 0 .1 0 .2 0 2.2 1.2 4.2 4.3 5.7 6.5.9 1 1.5 4.1 3.3 2.6C268 994.2 267.3 993.1 266.9 992.4zM268.7 980.4c-2.3-2-5.5-5.7-8.1-6.8-1 0-1.7 1.3-.9 2 3.3 2.7 6.5 5.6 9.4 8.7 1 .8 1.6 2.4 2.9 2.6C275.6 986 269.7 981.7 268.7 980.4zM272.7 963.4c-.9-.7-2.4.6-1.8 1.6 2.3 3 4.2 6.3 6.4 9.3.7.6 1.9-.1 1.9-1C277.5 969.8 274.9 966.6 272.7 963.4zM242.6 694.1c-2.8-.2-5.6 0-8.3.5-9 1.5-17 7.4-22.3 14.7-7.8 12.4-11.5 27.3-11.9 41.9 0 5.5.1 11.1.7 16.6.4 1.2 2.3.6 2.3-.6-1.4-15.6-.8-30.3 4.8-44.6 4-11.8 12.1-22 24.3-25.3 2.9-.8 7.9-1.1 10.5-.9 1 .1 2.4.5 2.8-.8C245.9 693.9 243.7 694.2 242.6 694.1zM878.6 1417.8c-22 3.2-44.3 4.8-66.5 5.7-7.2.2-14.4.2-21.6.2-3.3.2-7.6-.9-10.2 1.7-3.8 6.6 5.3 12.3 10 15.5 1.6 1 3 1.6 3.6 2.3-2.3.6-6.6-.3-10.3-.9-28.8-6-56.6-15.6-84.7-24-17-5.5-36.5-9.4-52.5-14.9-.8-.7-1.9-1.1-2.7-.3-.7 1-.3 1.7.5 2.3-6.1 3.7-36.8-1.8-50.2-4.2-11.1-2.1-22.3-3.8-33.3-6.4-1.1-.2-2.2-1-3 0-1.1 1.8 1.3 2 2.6 2.3 10.6 2.5 21.4 4.2 32.1 6.2 11.2 2 22.3 4.1 33.6 5.1 6.3.5 13.1 1.5 19.1-.8.6-.2 1.2-.7 1.6-1.2 1.2.3 2.3.6 2.9.9 12.4 3.4 24.9 6.6 37.3 10.1 30.8 8.8 61 19.7 92.3 26.6 3.4.7 6.9 1.4 10.4 1.7 2.1.1 4.5.5 6.3-.9 1.3-1.4.1-3.2-1.2-4.1-3.5-2.1-6.3-3.7-8.9-6-3.2-2.4-4.9-6.4-4-7.6.3-.7 2.2-1.1 5.4-1 10.5.1 21.1 0 31.6-.4 18.4-1 36.9-2.3 55.2-4.8 1.7-.4 3.6-.2 5.1-1C880 1419.1 879.7 1417.7 878.6 1417.8zM606.4 1382.5c-10.4-1-20.7-4.3-31-5.4-.9.5-.9 1.9.2 2.1 10 2.1 20 4.2 30.1 5.5C607.1 1385.1 607.9 1382.9 606.4 1382.5zM635.9 1378.1c-4.4-1.7-8.8-3.4-13.2-5-1-.5-2.2.7-1.7 1.7 4.2 2.3 9.2 3.4 13.6 5.4C635.9 1380.9 637.2 1378.9 635.9 1378.1zM1868.3 894.8c-4.8-3.1-10.5-5.2-15.8-7.5-10.9-4.3-22.4-8.3-34.4-7.6-5.2.2-11.1 1.5-14.2 6-1.9 2.6-.4 6.8.3 8.4 2.3 11-2.2 13.1-13.2 13.9-30.2 3.7-59.3 12.5-87.8 22.9-9.2 3.3-18.3 6.8-27.2 10.7-.6.2-1 .8-.9 1.5.1.6.8 1 1.4.8 37.5-15.6 76.9-29.1 116.5-33.8 10.9-.6 15.9-5.2 13.6-16.4-1.1-3.1-2-5.2-.7-6.9 10.8-11.2 39-.5 54.3 6.7 2.3 1 4.5 2.4 6.8 3.3C1868 896.7 1868.8 895.6 1868.3 894.8zM1878.7 885.6c-7.6-8.3-15.5-16.5-24.9-22.8-1.2-.7-2.6 1.4-1.3 2.1 8.7 5.6 17 14.7 24.8 22.7C1878.5 888.1 1879.6 886.5 1878.7 885.6z"></path><g><path d="M1660.3,688.3C1660.2,688.3,1660.1,688.3,1660.3,688.3C1660.2,688.3,1660.2,688.4,1660.3,688.3
				C1660.2,688.4,1660.2,688.3,1660.3,688.3C1660.2,688.3,1660.3,688.3,1660.3,688.3z"></path><path d="M1664.7,702c-0.2-3.6-0.5-7.1-1-10.6c-0.3-2.4-1.2-6.3-4.5-5.2c-5.4,2.3-9.5,6.9-13.9,10.7c-16.5,15.4-31.9,32-45.7,49.8
				c-12.4,15.7-22.9,32.8-32.9,50.1c-0.4,1-1.4,1.8-1.3,3c0.2,1,1.7,1.1,2.1,0.2c19.1-34.3,41.6-64.7,69.6-92.1
				c5-5,10.1-9.9,15.4-14.5c2.5-2.2,5.7-4.7,7.6-4.9c0.1,0,0.1,0,0.2,0.1c-0.1,0-0.1,0-0.1,0c0,0,0.1,0,0.1,0.1
				c-0.1,0-0.1-0.1-0.1-0.1c0.1,0,0.2,0.1,0.2,0.3c-0.1-0.1-0.1-0.1-0.1-0.1c0,0.1,0.1,0.2,0.2,0.3c0.7,1.3,1,4.7,1.3,7.1
				c0.4,3.4,0.5,6.2,0.6,10.1c-0.1,0.6,0.5,1.2,1.1,1.1C1665.8,706.7,1664.4,703.6,1664.7,702z"></path><path d="M1660.4,688.5C1660.3,688.4,1660.3,688.4,1660.4,688.5L1660.4,688.5z"></path></g><path d="M1859 1087.7c-2.7-2.8-5.7-5.5-9.4-6.9-5.3-1.8-4.8 2.3-5.2 4.9-.4 2.2-1.9 4-2.9 4.7-1.1 1-5.1.7-6.7.1-3.5-1.5-6.4-4.1-9.7-6-8.3-5.2-17-10.1-25.6-14.8-.6-.3-1.3-.9-2-.7-.9.2-1.3 1.7-.4 2.2 9.6 5.2 19.1 10.5 28.3 16.4 3.5 2.1 6.7 5.2 10.9 5.7 6.9 1.4 10.5-4.2 10.7-10.4 0 0 0-.1 0-.1 0 0 0 0 0 0 0 0 0 0 0 0 .1 0 .1 0 .1 0 .5.1 1 .2 1.4.4.1 0 .1 0 .2.1 0 0 0 0 0 0 .7.3 1.3.6 1.9 1 2.5 1.3 4.3 3.4 6.8 5.6C1858.8 1090.1 1859.9 1088.6 1859 1087.7zM1732 1216.2c-3.4-8-7.8-15.5-12.6-22.7-4.1-5.9-8-12.2-13.2-17.2-1.1-.4-2.2 1.1-1.4 2 10 11.3 18.6 25.2 25.4 39.5C1731.1 1218.6 1732.5 1217.3 1732 1216.2zM1705.9 1200.8c-7.7-4.8-15.8-8.6-24.1-12.2-1.2-.7-2.6 1.4-1.3 2.1 8.5 3.5 16.6 7.7 24.5 12.3C1706.3 1203.2 1707.1 1201.4 1705.9 1200.8z"></path></g></g></svg>