<svg width="173" height="46" viewBox="0 0 173 46" fill="none" xmlns="http://www.w3.org/2000/svg">
<path d="M38.2839 18.6227C41.6535 20.5682 41.6535 25.4318 38.2839 27.3773L8.08165 44.8146C4.71202 46.76 0.5 44.3282 0.5 40.4373V5.56271C0.5 1.67181 4.71203 -0.76 8.08165 1.18545L38.2839 18.6227Z" fill="url(#paint0_linear_104_806)" stroke="#E4E4E4"/>
<path d="M15.8127 17.3731L14.7767 23.2811H21.4967L21.0767 25.7451H14.3567L13.2647 31.8771H20.8247L20.3767 34.3691H9.62471L13.0687 14.8811H23.8207L23.3727 17.3731H15.8127Z" fill="white"/>
<path d="M53.595 31.9331H60.175L59.727 34.3691H49.955L53.399 14.9091H56.591L53.595 31.9331ZM71.8044 18.6891C73.7271 18.6891 75.2578 19.2305 76.3964 20.3131C77.5538 21.3958 78.1324 22.8518 78.1324 24.6811C78.1324 25.1105 78.0858 25.6238 77.9924 26.2211C77.9178 26.6318 77.7871 27.1358 77.6004 27.7331H65.8124C65.7938 27.8638 65.7844 28.0598 65.7844 28.3211C65.7844 29.4225 66.1204 30.2998 66.7924 30.9531C67.4831 31.6065 68.3791 31.9331 69.4804 31.9331C71.2164 31.9331 72.5511 31.2145 73.4844 29.7771H76.9284C76.2191 31.1958 75.1738 32.3625 73.7924 33.2771C72.4111 34.1731 70.8151 34.6211 69.0044 34.6211C67.7164 34.6211 66.5871 34.3691 65.6164 33.8651C64.6458 33.3611 63.8898 32.6425 63.3484 31.7091C62.8071 30.7571 62.5364 29.6465 62.5364 28.3771C62.5364 27.8358 62.5924 27.2571 62.7044 26.6411C62.9844 25.0545 63.5538 23.6638 64.4124 22.4691C65.2711 21.2558 66.3351 20.3225 67.6044 19.6691C68.8924 19.0158 70.2924 18.6891 71.8044 18.6891ZM74.8004 25.4371C74.8378 25.1011 74.8564 24.8585 74.8564 24.7091C74.8564 23.6825 74.5111 22.8705 73.8204 22.2731C73.1484 21.6758 72.2711 21.3771 71.1884 21.3771C70.0498 21.3771 69.0231 21.7411 68.1084 22.4691C67.1938 23.1971 66.5684 24.1865 66.2324 25.4371H74.8004ZM79.9857 26.5851C80.2657 25.0358 80.8257 23.6638 81.6657 22.4691C82.5244 21.2745 83.5697 20.3505 84.8017 19.6971C86.0337 19.0251 87.3217 18.6891 88.6657 18.6891C89.879 18.6891 90.8964 18.9318 91.7177 19.4171C92.539 19.8838 93.155 20.4718 93.5657 21.1811L93.9577 18.9411H97.1777L94.4617 34.3691H91.2417L91.6617 32.0731C90.9897 32.8011 90.1404 33.4078 89.1137 33.8931C88.1057 34.3785 87.0044 34.6211 85.8097 34.6211C84.6524 34.6211 83.6164 34.3598 82.7017 33.8371C81.8057 33.3145 81.0964 32.5771 80.5737 31.6251C80.0697 30.6545 79.8177 29.5438 79.8177 28.2931C79.8177 27.7331 79.8737 27.1638 79.9857 26.5851ZM92.6137 26.6411C92.6884 26.2865 92.7257 25.9038 92.7257 25.4931C92.7257 24.2425 92.3524 23.2625 91.6057 22.5531C90.8777 21.8251 89.963 21.4611 88.8617 21.4611C88.0404 21.4611 87.2377 21.6665 86.4537 22.0771C85.6697 22.4691 84.9884 23.0571 84.4097 23.8411C83.831 24.6065 83.4484 25.5211 83.2617 26.5851C83.187 26.9398 83.1497 27.3225 83.1497 27.7331C83.1497 29.0025 83.5137 30.0105 84.2417 30.7571C84.9884 31.4851 85.9124 31.8491 87.0137 31.8491C87.835 31.8491 88.6377 31.6438 89.4217 31.2331C90.2057 30.8225 90.887 30.2251 91.4657 29.4411C92.0444 28.6385 92.427 27.7051 92.6137 26.6411ZM104.086 21.6571C104.721 20.7238 105.468 19.9958 106.326 19.4731C107.204 18.9505 108.174 18.6891 109.238 18.6891L108.65 21.9931H107.838C106.606 21.9931 105.617 22.3011 104.87 22.9171C104.124 23.5331 103.601 24.5971 103.302 26.1091L101.846 34.3691H98.6543L101.37 18.9411H104.562L104.086 21.6571ZM119.956 18.6891C121.58 18.6891 122.868 19.1278 123.82 20.0051C124.791 20.8638 125.276 22.1051 125.276 23.7291C125.276 24.1398 125.23 24.6531 125.136 25.2691L123.512 34.3691H120.348L121.888 25.7451C121.963 25.2225 122 24.8491 122 24.6251C122 23.5985 121.711 22.8145 121.132 22.2731C120.572 21.7318 119.788 21.4611 118.78 21.4611C117.567 21.4611 116.54 21.8345 115.7 22.5811C114.879 23.3091 114.356 24.3638 114.132 25.7451V25.6611L112.592 34.3691H109.4L112.116 18.9411H115.308L115 20.7331C115.635 20.0985 116.382 19.6038 117.24 19.2491C118.118 18.8758 119.023 18.6891 119.956 18.6891ZM132.288 16.8971C131.784 16.8971 131.373 16.7385 131.056 16.4211C130.739 16.1038 130.58 15.7025 130.58 15.2171C130.58 14.5638 130.823 14.0038 131.308 13.5371C131.812 13.0518 132.381 12.8091 133.016 12.8091C133.52 12.8091 133.921 12.9678 134.22 13.2851C134.537 13.6025 134.696 14.0038 134.696 14.4891C134.696 15.1425 134.453 15.7118 133.968 16.1971C133.483 16.6638 132.923 16.8971 132.288 16.8971ZM133.492 18.9411L130.776 34.3691H127.584L130.3 18.9411H133.492ZM145.523 18.6891C147.147 18.6891 148.435 19.1278 149.387 20.0051C150.357 20.8638 150.843 22.1051 150.843 23.7291C150.843 24.1398 150.796 24.6531 150.703 25.2691L149.079 34.3691H145.915L147.455 25.7451C147.529 25.2225 147.567 24.8491 147.567 24.6251C147.567 23.5985 147.277 22.8145 146.699 22.2731C146.139 21.7318 145.355 21.4611 144.347 21.4611C143.133 21.4611 142.107 21.8345 141.267 22.5811C140.445 23.3091 139.923 24.3638 139.699 25.7451V25.6611L138.159 34.3691H134.967L137.683 18.9411H140.875L140.567 20.7331C141.201 20.0985 141.948 19.6038 142.807 19.2491C143.684 18.8758 144.589 18.6891 145.523 18.6891ZM162.138 18.6891C163.333 18.6891 164.35 18.9318 165.19 19.4171C166.049 19.8838 166.665 20.4718 167.038 21.1811L167.43 18.9411H170.65L167.906 34.6211C167.645 36.0398 167.122 37.2998 166.338 38.4011C165.554 39.5211 164.537 40.3985 163.286 41.0331C162.036 41.6678 160.626 41.9851 159.058 41.9851C157.696 41.9851 156.501 41.7611 155.474 41.3131C154.448 40.8838 153.673 40.2585 153.15 39.4371C152.628 38.6158 152.404 37.6451 152.478 36.5251H155.642C155.736 37.3278 156.137 37.9718 156.846 38.4571C157.556 38.9611 158.461 39.2131 159.562 39.2131C160.85 39.2131 161.961 38.8211 162.894 38.0371C163.828 37.2531 164.425 36.1145 164.686 34.6211L165.134 32.0451C164.462 32.7731 163.622 33.3891 162.614 33.8931C161.606 34.3785 160.514 34.6211 159.338 34.6211C158.162 34.6211 157.117 34.3598 156.202 33.8371C155.288 33.3145 154.569 32.5771 154.046 31.6251C153.542 30.6545 153.29 29.5438 153.29 28.2931C153.29 27.7331 153.346 27.1638 153.458 26.5851C153.738 25.0358 154.298 23.6638 155.138 22.4691C155.997 21.2745 157.042 20.3505 158.274 19.6971C159.506 19.0251 160.794 18.6891 162.138 18.6891ZM166.086 26.6411C166.161 26.2865 166.198 25.9038 166.198 25.4931C166.198 24.2425 165.825 23.2625 165.078 22.5531C164.35 21.8251 163.436 21.4611 162.334 21.4611C161.513 21.4611 160.71 21.6665 159.926 22.0771C159.142 22.4691 158.461 23.0571 157.882 23.8411C157.304 24.6065 156.921 25.5211 156.734 26.5851C156.66 26.9398 156.622 27.3225 156.622 27.7331C156.622 29.0025 156.986 30.0105 157.714 30.7571C158.461 31.4851 159.385 31.8491 160.486 31.8491C161.308 31.8491 162.11 31.6438 162.894 31.2331C163.678 30.8225 164.36 30.2251 164.938 29.4411C165.517 28.6385 165.9 27.7051 166.086 26.6411Z" fill="white"/>
<defs>
<linearGradient id="paint0_linear_104_806" x1="46.8656" y1="23" x2="-15.6219" y2="23" gradientUnits="userSpaceOnUse">
<stop stop-color="#D5D5D5"/>
<stop offset="0.814674" stop-color="#161616" stop-opacity="0"/>
</linearGradient>
</defs>
</svg>
